solid OpenSCAD_Model
  facet normal 0 -1 0
    outer loop
      vertex 0 0 0
      vertex 8 0 0
      vertex 0 0 48
    endloop
  endfacet
  facet normal 0 1 0
    outer loop
      vertex 8 15 0
      vertex 0 15 0
      vertex 0 15 48
    endloop
  endfacet
  facet normal -1 0 0
    outer loop
      vertex 0 0 0
      vertex 0 15 48
      vertex 0 15 0
    endloop
  endfacet
  facet normal -1 -0 0
    outer loop
      vertex 0 15 48
      vertex 0 0 0
      vertex 0 0 48
    endloop
  endfacet
  facet normal 0 0 -1
    outer loop
      vertex 0 0 0
      vertex 8 15 0
      vertex 8 0 0
    endloop
  endfacet
  facet normal -0 0 -1
    outer loop
      vertex 8 15 0
      vertex 0 0 0
      vertex 0 15 0
    endloop
  endfacet
  facet normal 0.986394 -0 0.164399
    outer loop
      vertex 0 0 48
      vertex 8 15 0
      vertex 0 15 48
    endloop
  endfacet
  facet normal 0.986394 0 0.164399
    outer loop
      vertex 8 15 0
      vertex 0 0 48
      vertex 8 0 0
    endloop
  endfacet
endsolid OpenSCAD_Model
