solid OpenSCAD_Model
  facet normal 0 -1 0
    outer loop
      vertex 0 0 0
      vertex 16 0 0
      vertex 0 0 27.62
    endloop
  endfacet
  facet normal 0 1 0
    outer loop
      vertex 16 15 0
      vertex 0 15 0
      vertex 0 15 27.62
    endloop
  endfacet
  facet normal -1 0 0
    outer loop
      vertex 0 0 0
      vertex 0 15 27.62
      vertex 0 15 0
    endloop
  endfacet
  facet normal -1 -0 0
    outer loop
      vertex 0 15 27.62
      vertex 0 0 0
      vertex 0 0 27.62
    endloop
  endfacet
  facet normal 0 0 -1
    outer loop
      vertex 0 0 0
      vertex 16 15 0
      vertex 16 0 0
    endloop
  endfacet
  facet normal -0 0 -1
    outer loop
      vertex 16 15 0
      vertex 0 0 0
      vertex 0 15 0
    endloop
  endfacet
  facet normal 0.865298 -0 0.501259
    outer loop
      vertex 0 0 27.62
      vertex 16 15 0
      vertex 0 15 27.62
    endloop
  endfacet
  facet normal 0.865298 0 0.501259
    outer loop
      vertex 16 15 0
      vertex 0 0 27.62
      vertex 16 0 0
    endloop
  endfacet
endsolid OpenSCAD_Model
