solid OpenSCAD_Model
  facet normal -1 0 0
    outer loop
      vertex -15 3.5 1.5
      vertex -15 2 4.5
      vertex -15 3.5 3
    endloop
  endfacet
  facet normal -1 0 0
    outer loop
      vertex -15 3.5 1.5
      vertex -15 -2 4.5
      vertex -15 2 4.5
    endloop
  endfacet
  facet normal -1 0 0
    outer loop
      vertex -15 -3.5 1.5
      vertex -15 -2 4.5
      vertex -15 3.5 1.5
    endloop
  endfacet
  facet normal -1 0 0
    outer loop
      vertex -15 -3.5 3
      vertex -15 -2 4.5
      vertex -15 -3.5 1.5
    endloop
  endfacet
  facet normal -1 0 0
    outer loop
      vertex -15 -5 3
      vertex -15 -2 4.5
      vertex -15 -3.5 3
    endloop
  endfacet
  facet normal -1 -0 0
    outer loop
      vertex -15 -2 4.5
      vertex -15 -5 3
      vertex -15 -5 12
    endloop
  endfacet
  facet normal -1 0 0
    outer loop
      vertex -15 -2 4.5
      vertex -15 -5 12
      vertex -15 -2 12
    endloop
  endfacet
  facet normal -1 0 0
    outer loop
      vertex -15 2 4.5
      vertex -15 5 3
      vertex -15 3.5 3
    endloop
  endfacet
  facet normal -1 0 0
    outer loop
      vertex -15 5 3
      vertex -15 2 4.5
      vertex -15 5 12
    endloop
  endfacet
  facet normal -1 -0 0
    outer loop
      vertex -15 5 12
      vertex -15 2 4.5
      vertex -15 2 12
    endloop
  endfacet
  facet normal 0 0 1
    outer loop
      vertex -5 2 4.5
      vertex -10.5 0 4.5
      vertex -5 -2 4.5
    endloop
  endfacet
  facet normal 0 0 1
    outer loop
      vertex -5 2 4.5
      vertex -11.0648 1.17275 4.5
      vertex -10.5 0 4.5
    endloop
  endfacet
  facet normal 0 0 1
    outer loop
      vertex -5 2 4.5
      vertex -12.3338 1.46239 4.5
      vertex -11.0648 1.17275 4.5
    endloop
  endfacet
  facet normal 0 0 1
    outer loop
      vertex -13.3515 0.650826 4.5
      vertex -15 2 4.5
      vertex -13.3515 -0.650826 4.5
    endloop
  endfacet
  facet normal 0 0 1
    outer loop
      vertex -12.3338 1.46239 4.5
      vertex -15 2 4.5
      vertex -13.3515 0.650826 4.5
    endloop
  endfacet
  facet normal -0 0 1
    outer loop
      vertex -15 2 4.5
      vertex -12.3338 1.46239 4.5
      vertex -5 2 4.5
    endloop
  endfacet
  facet normal -0 0 1
    outer loop
      vertex -11.0648 -1.17275 4.5
      vertex -5 -2 4.5
      vertex -10.5 0 4.5
    endloop
  endfacet
  facet normal -0 0 1
    outer loop
      vertex -12.3338 -1.46239 4.5
      vertex -5 -2 4.5
      vertex -11.0648 -1.17275 4.5
    endloop
  endfacet
  facet normal 0 0 1
    outer loop
      vertex -12.3338 -1.46239 4.5
      vertex -15 -2 4.5
      vertex -5 -2 4.5
    endloop
  endfacet
  facet normal 0 0 1
    outer loop
      vertex -13.3515 -0.650826 4.5
      vertex -15 -2 4.5
      vertex -12.3338 -1.46239 4.5
    endloop
  endfacet
  facet normal 0 0 1
    outer loop
      vertex -15 -2 4.5
      vertex -13.3515 -0.650826 4.5
      vertex -15 2 4.5
    endloop
  endfacet
  facet normal -1 0 0
    outer loop
      vertex -5 3.5 1.5
      vertex -5 5 0
      vertex -5 3.5 0
    endloop
  endfacet
  facet normal -1 0 0
    outer loop
      vertex -5 5 0
      vertex -5 3.5 1.5
      vertex -5 5 3
    endloop
  endfacet
  facet normal -1 -0 0
    outer loop
      vertex -5 5 3
      vertex -5 3.5 1.5
      vertex -5 3.5 3
    endloop
  endfacet
  facet normal -1 0 0
    outer loop
      vertex -5 2 1.5
      vertex -5 3.5 0
      vertex -5 3.5 -1.5
    endloop
  endfacet
  facet normal -1 0 0
    outer loop
      vertex -5 3.5 0
      vertex -5 2 1.5
      vertex -5 3.5 1.5
    endloop
  endfacet
  facet normal -1 0 0
    outer loop
      vertex -5 3.5 -1.5
      vertex -5 -2 1.5
      vertex -5 2 1.5
    endloop
  endfacet
  facet normal -1 0 0
    outer loop
      vertex -5 -3.5 -1.5
      vertex -5 -2 1.5
      vertex -5 3.5 -1.5
    endloop
  endfacet
  facet normal -1 0 0
    outer loop
      vertex -5 -3.5 0
      vertex -5 -2 1.5
      vertex -5 -3.5 -1.5
    endloop
  endfacet
  facet normal -1 0 0
    outer loop
      vertex -5 -3.5 0
      vertex -5 -3.5 1.5
      vertex -5 -2 1.5
    endloop
  endfacet
  facet normal -1 0 0
    outer loop
      vertex -5 -5 0
      vertex -5 -3.5 1.5
      vertex -5 -3.5 0
    endloop
  endfacet
  facet normal -1 0 0
    outer loop
      vertex -5 -5 3
      vertex -5 -3.5 1.5
      vertex -5 -5 0
    endloop
  endfacet
  facet normal -1 0 0
    outer loop
      vertex -5 -3.5 1.5
      vertex -5 -5 3
      vertex -5 -3.5 3
    endloop
  endfacet
  facet normal 1 -0 0
    outer loop
      vertex -5 -2 4.5
      vertex -5 2 1.5
      vertex -5 2 4.5
    endloop
  endfacet
  facet normal 1 0 0
    outer loop
      vertex -5 2 1.5
      vertex -5 -2 4.5
      vertex -5 -2 1.5
    endloop
  endfacet
  facet normal 0 0 -1
    outer loop
      vertex -11.0648 -1.17275 1.5
      vertex -5 -2 1.5
      vertex -5 -3.5 1.5
    endloop
  endfacet
  facet normal 0 0 -1
    outer loop
      vertex -5 -2 1.5
      vertex -10.5 0 1.5
      vertex -5 2 1.5
    endloop
  endfacet
  facet normal 0 0 -1
    outer loop
      vertex -11.0648 1.17275 1.5
      vertex -5 2 1.5
      vertex -10.5 0 1.5
    endloop
  endfacet
  facet normal 0 0 -1
    outer loop
      vertex -5 -2 1.5
      vertex -11.0648 -1.17275 1.5
      vertex -10.5 0 1.5
    endloop
  endfacet
  facet normal 0 0 -1
    outer loop
      vertex -15 -3.5 1.5
      vertex -11.0648 -1.17275 1.5
      vertex -5 -3.5 1.5
    endloop
  endfacet
  facet normal -0 0 -1
    outer loop
      vertex -13.3515 -0.650826 1.5
      vertex -15 -3.5 1.5
      vertex -13.3515 0.650826 1.5
    endloop
  endfacet
  facet normal -0 0 -1
    outer loop
      vertex -12.3338 -1.46239 1.5
      vertex -15 -3.5 1.5
      vertex -13.3515 -0.650826 1.5
    endloop
  endfacet
  facet normal 0 0 -1
    outer loop
      vertex -11.0648 -1.17275 1.5
      vertex -15 -3.5 1.5
      vertex -12.3338 -1.46239 1.5
    endloop
  endfacet
  facet normal -0 0 -1
    outer loop
      vertex -5 2 1.5
      vertex -11.0648 1.17275 1.5
      vertex -5 3.5 1.5
    endloop
  endfacet
  facet normal 0 0 -1
    outer loop
      vertex -15 3.5 1.5
      vertex -11.0648 1.17275 1.5
      vertex -12.3338 1.46239 1.5
    endloop
  endfacet
  facet normal 0 0 -1
    outer loop
      vertex -11.0648 1.17275 1.5
      vertex -15 3.5 1.5
      vertex -5 3.5 1.5
    endloop
  endfacet
  facet normal 0 0 -1
    outer loop
      vertex -13.3515 0.650826 1.5
      vertex -15 3.5 1.5
      vertex -12.3338 1.46239 1.5
    endloop
  endfacet
  facet normal 0 0 -1
    outer loop
      vertex -15 3.5 1.5
      vertex -13.3515 0.650826 1.5
      vertex -15 -3.5 1.5
    endloop
  endfacet
  facet normal 0 -1 0
    outer loop
      vertex -15 -3.5 1.5
      vertex -5 -3.5 3
      vertex -15 -3.5 3
    endloop
  endfacet
  facet normal 0 -1 -0
    outer loop
      vertex -5 -3.5 3
      vertex -15 -3.5 1.5
      vertex -5 -3.5 1.5
    endloop
  endfacet
  facet normal 0 1 -0
    outer loop
      vertex -5 3.5 1.5
      vertex -15 3.5 3
      vertex -5 3.5 3
    endloop
  endfacet
  facet normal 0 1 0
    outer loop
      vertex -15 3.5 3
      vertex -5 3.5 1.5
      vertex -15 3.5 1.5
    endloop
  endfacet
  facet normal -0.900969 -0.433884 0
    outer loop
      vertex -10.5 0 1.5
      vertex -11.0648 1.17275 4.5
      vertex -11.0648 1.17275 1.5
    endloop
  endfacet
  facet normal -0.900969 -0.433884 0
    outer loop
      vertex -11.0648 1.17275 4.5
      vertex -10.5 0 1.5
      vertex -10.5 0 4.5
    endloop
  endfacet
  facet normal 1 -0 0
    outer loop
      vertex -13.3515 -0.650826 4.5
      vertex -13.3515 0.650826 1.5
      vertex -13.3515 0.650826 4.5
    endloop
  endfacet
  facet normal 1 0 0
    outer loop
      vertex -13.3515 0.650826 1.5
      vertex -13.3515 -0.650826 4.5
      vertex -13.3515 -0.650826 1.5
    endloop
  endfacet
  facet normal -0.222521 -0.974928 0
    outer loop
      vertex -12.3338 1.46239 1.5
      vertex -11.0648 1.17275 4.5
      vertex -12.3338 1.46239 4.5
    endloop
  endfacet
  facet normal -0.222521 -0.974928 -0
    outer loop
      vertex -11.0648 1.17275 4.5
      vertex -12.3338 1.46239 1.5
      vertex -11.0648 1.17275 1.5
    endloop
  endfacet
  facet normal 0.62349 0.781831 -0
    outer loop
      vertex -12.3338 -1.46239 1.5
      vertex -13.3515 -0.650826 4.5
      vertex -12.3338 -1.46239 4.5
    endloop
  endfacet
  facet normal 0.62349 0.781831 0
    outer loop
      vertex -13.3515 -0.650826 4.5
      vertex -12.3338 -1.46239 1.5
      vertex -13.3515 -0.650826 1.5
    endloop
  endfacet
  facet normal 0.62349 -0.781831 0
    outer loop
      vertex -13.3515 0.650826 1.5
      vertex -12.3338 1.46239 4.5
      vertex -13.3515 0.650826 4.5
    endloop
  endfacet
  facet normal 0.62349 -0.781831 0
    outer loop
      vertex -12.3338 1.46239 4.5
      vertex -13.3515 0.650826 1.5
      vertex -12.3338 1.46239 1.5
    endloop
  endfacet
  facet normal -0.900969 0.433884 0
    outer loop
      vertex -11.0648 -1.17275 1.5
      vertex -10.5 0 4.5
      vertex -10.5 0 1.5
    endloop
  endfacet
  facet normal -0.900969 0.433884 0
    outer loop
      vertex -10.5 0 4.5
      vertex -11.0648 -1.17275 1.5
      vertex -11.0648 -1.17275 4.5
    endloop
  endfacet
  facet normal -0.222521 0.974928 0
    outer loop
      vertex -11.0648 -1.17275 1.5
      vertex -12.3338 -1.46239 4.5
      vertex -11.0648 -1.17275 4.5
    endloop
  endfacet
  facet normal -0.222521 0.974928 0
    outer loop
      vertex -12.3338 -1.46239 4.5
      vertex -11.0648 -1.17275 1.5
      vertex -12.3338 -1.46239 1.5
    endloop
  endfacet
  facet normal -1 0 0
    outer loop
      vertex 5 3.5 -1.5
      vertex 5 5 -4
      vertex 5 3.5 -4
    endloop
  endfacet
  facet normal -1 0 0
    outer loop
      vertex 5 5 -4
      vertex 5 3.5 -1.5
      vertex 5 5 0
    endloop
  endfacet
  facet normal -1 -0 0
    outer loop
      vertex 5 5 0
      vertex 5 3.5 -1.5
      vertex 5 3.5 0
    endloop
  endfacet
  facet normal -1 0 0
    outer loop
      vertex 5 2 -1.5
      vertex 5 3.5 -4
      vertex 5 3.5 -4.5
    endloop
  endfacet
  facet normal -1 0 0
    outer loop
      vertex 5 3.5 -4
      vertex 5 2 -1.5
      vertex 5 3.5 -1.5
    endloop
  endfacet
  facet normal -1 0 0
    outer loop
      vertex 5 3.5 -4.5
      vertex 5 -2 -1.5
      vertex 5 2 -1.5
    endloop
  endfacet
  facet normal -1 0 0
    outer loop
      vertex 5 -3.5 -4.5
      vertex 5 -2 -1.5
      vertex 5 3.5 -4.5
    endloop
  endfacet
  facet normal -1 0 0
    outer loop
      vertex 5 -3.5 -4
      vertex 5 -2 -1.5
      vertex 5 -3.5 -4.5
    endloop
  endfacet
  facet normal -1 0 0
    outer loop
      vertex 5 -3.5 -4
      vertex 5 -3.5 -1.5
      vertex 5 -2 -1.5
    endloop
  endfacet
  facet normal -1 0 0
    outer loop
      vertex 5 -5 -4
      vertex 5 -3.5 -1.5
      vertex 5 -3.5 -4
    endloop
  endfacet
  facet normal -1 0 0
    outer loop
      vertex 5 -5 0
      vertex 5 -3.5 -1.5
      vertex 5 -5 -4
    endloop
  endfacet
  facet normal -1 0 0
    outer loop
      vertex 5 -3.5 -1.5
      vertex 5 -5 0
      vertex 5 -3.5 0
    endloop
  endfacet
  facet normal 1 -0 0
    outer loop
      vertex 5 -2 1.5
      vertex 5 2 -1.5
      vertex 5 2 1.5
    endloop
  endfacet
  facet normal 1 0 0
    outer loop
      vertex 5 2 -1.5
      vertex 5 -2 1.5
      vertex 5 -2 -1.5
    endloop
  endfacet
  facet normal -0 0 1
    outer loop
      vertex -15 5 12
      vertex 30 2 12
      vertex 30 5 12
    endloop
  endfacet
  facet normal 0 0 1
    outer loop
      vertex 30 2 12
      vertex -15 5 12
      vertex -15 2 12
    endloop
  endfacet
  facet normal 1 -0 0
    outer loop
      vertex 30 -5 12
      vertex 30 -2 -1.5
      vertex 30 -2 12
    endloop
  endfacet
  facet normal 1 0 0
    outer loop
      vertex 30 -5 -4
      vertex 30 -2 -1.5
      vertex 30 -5 12
    endloop
  endfacet
  facet normal 1 0 0
    outer loop
      vertex 30 -2 -1.5
      vertex 30 -5 -4
      vertex 30 -3.5 -4
    endloop
  endfacet
  facet normal 1 -0 0
    outer loop
      vertex 30 2 -1.5
      vertex 30 5 -4
      vertex 30 5 12
    endloop
  endfacet
  facet normal 1 0 0
    outer loop
      vertex 30 2 -1.5
      vertex 30 5 12
      vertex 30 2 12
    endloop
  endfacet
  facet normal 1 0 0
    outer loop
      vertex 30 5 -4
      vertex 30 2 -1.5
      vertex 30 3.5 -4
    endloop
  endfacet
  facet normal 1 0 0
    outer loop
      vertex 30 3.5 -4
      vertex 30 2 -1.5
      vertex 30 3.5 -4.5
    endloop
  endfacet
  facet normal 1 -0 0
    outer loop
      vertex 30 -2 -1.5
      vertex 30 3.5 -4.5
      vertex 30 2 -1.5
    endloop
  endfacet
  facet normal 1 0 0
    outer loop
      vertex 30 -3.5 -4.5
      vertex 30 -2 -1.5
      vertex 30 -3.5 -4
    endloop
  endfacet
  facet normal 1 0 0
    outer loop
      vertex 30 -2 -1.5
      vertex 30 -3.5 -4.5
      vertex 30 3.5 -4.5
    endloop
  endfacet
  facet normal 0 1 0
    outer loop
      vertex 30 5 12
      vertex -5 5 3
      vertex -15 5 12
    endloop
  endfacet
  facet normal 0 1 0
    outer loop
      vertex 30 5 12
      vertex 5 5 0
      vertex -5 5 3
    endloop
  endfacet
  facet normal 0 1 -0
    outer loop
      vertex 30 5 -4
      vertex 5 5 0
      vertex 30 5 12
    endloop
  endfacet
  facet normal 0 1 0
    outer loop
      vertex 5 5 0
      vertex 30 5 -4
      vertex 5 5 -4
    endloop
  endfacet
  facet normal 0 1 0
    outer loop
      vertex -15 5 12
      vertex -5 5 3
      vertex -15 5 3
    endloop
  endfacet
  facet normal 0 1 0
    outer loop
      vertex -5 5 3
      vertex 5 5 0
      vertex -5 5 0
    endloop
  endfacet
  facet normal 0 0 -1
    outer loop
      vertex 5 3.5 -4
      vertex 30 5 -4
      vertex 30 3.5 -4
    endloop
  endfacet
  facet normal -0 0 -1
    outer loop
      vertex 30 5 -4
      vertex 5 3.5 -4
      vertex 5 5 -4
    endloop
  endfacet
  facet normal 0 -1 0
    outer loop
      vertex -5 2 4.5
      vertex -15 2 12
      vertex -15 2 4.5
    endloop
  endfacet
  facet normal 0 -1 0
    outer loop
      vertex -15 2 12
      vertex -5 2 4.5
      vertex 30 2 12
    endloop
  endfacet
  facet normal 0 -1 0
    outer loop
      vertex 5 2 1.5
      vertex -5 2 4.5
      vertex -5 2 1.5
    endloop
  endfacet
  facet normal 0 -1 0
    outer loop
      vertex -5 2 4.5
      vertex 5 2 1.5
      vertex 30 2 12
    endloop
  endfacet
  facet normal 0 -1 0
    outer loop
      vertex 30 2 -1.5
      vertex 5 2 1.5
      vertex 5 2 -1.5
    endloop
  endfacet
  facet normal 0 -1 0
    outer loop
      vertex 5 2 1.5
      vertex 30 2 -1.5
      vertex 30 2 12
    endloop
  endfacet
  facet normal -0 0 1
    outer loop
      vertex -15 -2 12
      vertex 30 -5 12
      vertex 30 -2 12
    endloop
  endfacet
  facet normal 0 0 1
    outer loop
      vertex 30 -5 12
      vertex -15 -2 12
      vertex -15 -5 12
    endloop
  endfacet
  facet normal 0 1 0
    outer loop
      vertex 30 -2 12
      vertex -5 -2 4.5
      vertex -15 -2 12
    endloop
  endfacet
  facet normal 0 1 0
    outer loop
      vertex 30 -2 12
      vertex 5 -2 1.5
      vertex -5 -2 4.5
    endloop
  endfacet
  facet normal 0 1 -0
    outer loop
      vertex 30 -2 -1.5
      vertex 5 -2 1.5
      vertex 30 -2 12
    endloop
  endfacet
  facet normal 0 1 0
    outer loop
      vertex 5 -2 1.5
      vertex 30 -2 -1.5
      vertex 5 -2 -1.5
    endloop
  endfacet
  facet normal 0 1 0
    outer loop
      vertex -15 -2 12
      vertex -5 -2 4.5
      vertex -15 -2 4.5
    endloop
  endfacet
  facet normal 0 1 0
    outer loop
      vertex -5 -2 4.5
      vertex 5 -2 1.5
      vertex -5 -2 1.5
    endloop
  endfacet
  facet normal 0 0 -1
    outer loop
      vertex 5 -5 -4
      vertex 30 -3.5 -4
      vertex 30 -5 -4
    endloop
  endfacet
  facet normal -0 0 -1
    outer loop
      vertex 30 -3.5 -4
      vertex 5 -5 -4
      vertex 5 -3.5 -4
    endloop
  endfacet
  facet normal 0 -1 0
    outer loop
      vertex -5 -5 3
      vertex -15 -5 12
      vertex -15 -5 3
    endloop
  endfacet
  facet normal 0 -1 0
    outer loop
      vertex -15 -5 12
      vertex -5 -5 3
      vertex 30 -5 12
    endloop
  endfacet
  facet normal 0 -1 0
    outer loop
      vertex 5 -5 0
      vertex -5 -5 3
      vertex -5 -5 0
    endloop
  endfacet
  facet normal 0 -1 0
    outer loop
      vertex -5 -5 3
      vertex 5 -5 0
      vertex 30 -5 12
    endloop
  endfacet
  facet normal 0 -1 0
    outer loop
      vertex 30 -5 -4
      vertex 5 -5 0
      vertex 5 -5 -4
    endloop
  endfacet
  facet normal 0 -1 0
    outer loop
      vertex 5 -5 0
      vertex 30 -5 -4
      vertex 30 -5 12
    endloop
  endfacet
  facet normal -0 0 1
    outer loop
      vertex 5 2 -1.5
      vertex 30 -2 -1.5
      vertex 30 2 -1.5
    endloop
  endfacet
  facet normal 0 0 1
    outer loop
      vertex 30 -2 -1.5
      vertex 5 2 -1.5
      vertex 5 -2 -1.5
    endloop
  endfacet
  facet normal 0 1 -0
    outer loop
      vertex 30 3.5 -4.5
      vertex 5 3.5 -4
      vertex 30 3.5 -4
    endloop
  endfacet
  facet normal 0 1 0
    outer loop
      vertex 5 3.5 -4
      vertex 30 3.5 -4.5
      vertex 5 3.5 -4.5
    endloop
  endfacet
  facet normal 0 0 -1
    outer loop
      vertex 5 -3.5 -4.5
      vertex 30 3.5 -4.5
      vertex 30 -3.5 -4.5
    endloop
  endfacet
  facet normal -0 0 -1
    outer loop
      vertex 30 3.5 -4.5
      vertex 5 -3.5 -4.5
      vertex 5 3.5 -4.5
    endloop
  endfacet
  facet normal 0 -1 0
    outer loop
      vertex 5 -3.5 -4.5
      vertex 30 -3.5 -4
      vertex 5 -3.5 -4
    endloop
  endfacet
  facet normal 0 -1 -0
    outer loop
      vertex 30 -3.5 -4
      vertex 5 -3.5 -4.5
      vertex 30 -3.5 -4.5
    endloop
  endfacet
  facet normal 0 0 -1
    outer loop
      vertex -5 3.5 0
      vertex 5 5 0
      vertex 5 3.5 0
    endloop
  endfacet
  facet normal -0 0 -1
    outer loop
      vertex 5 5 0
      vertex -5 3.5 0
      vertex -5 5 0
    endloop
  endfacet
  facet normal 0 0 -1
    outer loop
      vertex -5 -5 0
      vertex 5 -3.5 0
      vertex 5 -5 0
    endloop
  endfacet
  facet normal -0 0 -1
    outer loop
      vertex 5 -3.5 0
      vertex -5 -5 0
      vertex -5 -3.5 0
    endloop
  endfacet
  facet normal -0 0 1
    outer loop
      vertex -5 2 1.5
      vertex 5 -2 1.5
      vertex 5 2 1.5
    endloop
  endfacet
  facet normal 0 0 1
    outer loop
      vertex 5 -2 1.5
      vertex -5 2 1.5
      vertex -5 -2 1.5
    endloop
  endfacet
  facet normal 0 1 -0
    outer loop
      vertex 5 3.5 -1.5
      vertex -5 3.5 0
      vertex 5 3.5 0
    endloop
  endfacet
  facet normal 0 1 0
    outer loop
      vertex -5 3.5 0
      vertex 5 3.5 -1.5
      vertex -5 3.5 -1.5
    endloop
  endfacet
  facet normal 0 0 -1
    outer loop
      vertex -5 -3.5 -1.5
      vertex 5 -2 -1.5
      vertex 5 -3.5 -1.5
    endloop
  endfacet
  facet normal -0 0 -1
    outer loop
      vertex 5 -2 -1.5
      vertex -5 -3.5 -1.5
      vertex 5 2 -1.5
    endloop
  endfacet
  facet normal 0 0 -1
    outer loop
      vertex -5 3.5 -1.5
      vertex 5 2 -1.5
      vertex -5 -3.5 -1.5
    endloop
  endfacet
  facet normal 0 0 -1
    outer loop
      vertex 5 2 -1.5
      vertex -5 3.5 -1.5
      vertex 5 3.5 -1.5
    endloop
  endfacet
  facet normal 0 -1 0
    outer loop
      vertex -5 -3.5 -1.5
      vertex 5 -3.5 0
      vertex -5 -3.5 0
    endloop
  endfacet
  facet normal 0 -1 -0
    outer loop
      vertex 5 -3.5 0
      vertex -5 -3.5 -1.5
      vertex 5 -3.5 -1.5
    endloop
  endfacet
  facet normal 0 0 -1
    outer loop
      vertex -15 -5 3
      vertex -5 -3.5 3
      vertex -5 -5 3
    endloop
  endfacet
  facet normal -0 0 -1
    outer loop
      vertex -5 -3.5 3
      vertex -15 -5 3
      vertex -15 -3.5 3
    endloop
  endfacet
  facet normal 0 0 -1
    outer loop
      vertex -15 3.5 3
      vertex -5 5 3
      vertex -5 3.5 3
    endloop
  endfacet
  facet normal -0 0 -1
    outer loop
      vertex -5 5 3
      vertex -15 3.5 3
      vertex -15 5 3
    endloop
  endfacet
endsolid OpenSCAD_Model
