solid OpenSCAD_Model
  facet normal -1 0 0
    outer loop
      vertex -15 5 1.5
      vertex -15 2 4.5
      vertex -15 5 22
    endloop
  endfacet
  facet normal -1 0 0
    outer loop
      vertex -15 5 1.5
      vertex -15 -2 4.5
      vertex -15 2 4.5
    endloop
  endfacet
  facet normal -1 0 0
    outer loop
      vertex -15 -5 1.5
      vertex -15 -2 4.5
      vertex -15 5 1.5
    endloop
  endfacet
  facet normal -1 0 0
    outer loop
      vertex -15 -5 22
      vertex -15 -2 4.5
      vertex -15 -5 1.5
    endloop
  endfacet
  facet normal -1 0 0
    outer loop
      vertex -15 -2 4.5
      vertex -15 -5 22
      vertex -15 -2 22
    endloop
  endfacet
  facet normal -1 -0 0
    outer loop
      vertex -15 5 22
      vertex -15 2 4.5
      vertex -15 2 22
    endloop
  endfacet
  facet normal 0 0 1
    outer loop
      vertex -5 2 4.5
      vertex -10.5 0 4.5
      vertex -5 -2 4.5
    endloop
  endfacet
  facet normal 0 0 1
    outer loop
      vertex -5 2 4.5
      vertex -11.0648 1.17275 4.5
      vertex -10.5 0 4.5
    endloop
  endfacet
  facet normal 0 0 1
    outer loop
      vertex -5 2 4.5
      vertex -12.3338 1.46239 4.5
      vertex -11.0648 1.17275 4.5
    endloop
  endfacet
  facet normal 0 0 1
    outer loop
      vertex -13.3515 0.650826 4.5
      vertex -15 2 4.5
      vertex -13.3515 -0.650826 4.5
    endloop
  endfacet
  facet normal 0 0 1
    outer loop
      vertex -12.3338 1.46239 4.5
      vertex -15 2 4.5
      vertex -13.3515 0.650826 4.5
    endloop
  endfacet
  facet normal -0 0 1
    outer loop
      vertex -15 2 4.5
      vertex -12.3338 1.46239 4.5
      vertex -5 2 4.5
    endloop
  endfacet
  facet normal -0 0 1
    outer loop
      vertex -11.0648 -1.17275 4.5
      vertex -5 -2 4.5
      vertex -10.5 0 4.5
    endloop
  endfacet
  facet normal -0 0 1
    outer loop
      vertex -12.3338 -1.46239 4.5
      vertex -5 -2 4.5
      vertex -11.0648 -1.17275 4.5
    endloop
  endfacet
  facet normal 0 0 1
    outer loop
      vertex -12.3338 -1.46239 4.5
      vertex -15 -2 4.5
      vertex -5 -2 4.5
    endloop
  endfacet
  facet normal 0 0 1
    outer loop
      vertex -13.3515 -0.650826 4.5
      vertex -15 -2 4.5
      vertex -12.3338 -1.46239 4.5
    endloop
  endfacet
  facet normal 0 0 1
    outer loop
      vertex -15 -2 4.5
      vertex -13.3515 -0.650826 4.5
      vertex -15 2 4.5
    endloop
  endfacet
  facet normal 1 -0 0
    outer loop
      vertex -5 -2 4.5
      vertex -5 2 1.5
      vertex -5 2 4.5
    endloop
  endfacet
  facet normal 1 0 0
    outer loop
      vertex -5 2 1.5
      vertex -5 -2 4.5
      vertex -5 -2 1.5
    endloop
  endfacet
  facet normal -1 0 0
    outer loop
      vertex -5 5 -1.5
      vertex -5 2 1.5
      vertex -5 5 1.5
    endloop
  endfacet
  facet normal -1 0 0
    outer loop
      vertex -5 5 -1.5
      vertex -5 -2 1.5
      vertex -5 2 1.5
    endloop
  endfacet
  facet normal -1 0 0
    outer loop
      vertex -5 -5 -1.5
      vertex -5 -2 1.5
      vertex -5 5 -1.5
    endloop
  endfacet
  facet normal -1 -0 0
    outer loop
      vertex -5 -2 1.5
      vertex -5 -5 -1.5
      vertex -5 -5 1.5
    endloop
  endfacet
  facet normal 0 0 -1
    outer loop
      vertex -11.0648 -1.17275 1.5
      vertex -5 -2 1.5
      vertex -5 -5 1.5
    endloop
  endfacet
  facet normal 0 0 -1
    outer loop
      vertex -5 -2 1.5
      vertex -10.5 0 1.5
      vertex -5 2 1.5
    endloop
  endfacet
  facet normal 0 0 -1
    outer loop
      vertex -11.0648 1.17275 1.5
      vertex -5 2 1.5
      vertex -10.5 0 1.5
    endloop
  endfacet
  facet normal 0 0 -1
    outer loop
      vertex -5 -2 1.5
      vertex -11.0648 -1.17275 1.5
      vertex -10.5 0 1.5
    endloop
  endfacet
  facet normal 0 0 -1
    outer loop
      vertex -15 -5 1.5
      vertex -11.0648 -1.17275 1.5
      vertex -5 -5 1.5
    endloop
  endfacet
  facet normal -0 0 -1
    outer loop
      vertex -13.3515 -0.650826 1.5
      vertex -15 -5 1.5
      vertex -13.3515 0.650826 1.5
    endloop
  endfacet
  facet normal -0 0 -1
    outer loop
      vertex -12.3338 -1.46239 1.5
      vertex -15 -5 1.5
      vertex -13.3515 -0.650826 1.5
    endloop
  endfacet
  facet normal 0 0 -1
    outer loop
      vertex -11.0648 -1.17275 1.5
      vertex -15 -5 1.5
      vertex -12.3338 -1.46239 1.5
    endloop
  endfacet
  facet normal -0 0 -1
    outer loop
      vertex -5 2 1.5
      vertex -11.0648 1.17275 1.5
      vertex -5 5 1.5
    endloop
  endfacet
  facet normal 0 0 -1
    outer loop
      vertex -15 5 1.5
      vertex -11.0648 1.17275 1.5
      vertex -12.3338 1.46239 1.5
    endloop
  endfacet
  facet normal 0 0 -1
    outer loop
      vertex -11.0648 1.17275 1.5
      vertex -15 5 1.5
      vertex -5 5 1.5
    endloop
  endfacet
  facet normal 0 0 -1
    outer loop
      vertex -13.3515 0.650826 1.5
      vertex -15 5 1.5
      vertex -12.3338 1.46239 1.5
    endloop
  endfacet
  facet normal 0 0 -1
    outer loop
      vertex -15 5 1.5
      vertex -13.3515 0.650826 1.5
      vertex -15 -5 1.5
    endloop
  endfacet
  facet normal -0.900969 -0.433884 0
    outer loop
      vertex -10.5 0 1.5
      vertex -11.0648 1.17275 4.5
      vertex -11.0648 1.17275 1.5
    endloop
  endfacet
  facet normal -0.900969 -0.433884 0
    outer loop
      vertex -11.0648 1.17275 4.5
      vertex -10.5 0 1.5
      vertex -10.5 0 4.5
    endloop
  endfacet
  facet normal 1 -0 0
    outer loop
      vertex -13.3515 -0.650826 4.5
      vertex -13.3515 0.650826 1.5
      vertex -13.3515 0.650826 4.5
    endloop
  endfacet
  facet normal 1 0 0
    outer loop
      vertex -13.3515 0.650826 1.5
      vertex -13.3515 -0.650826 4.5
      vertex -13.3515 -0.650826 1.5
    endloop
  endfacet
  facet normal -0.222521 -0.974928 0
    outer loop
      vertex -12.3338 1.46239 1.5
      vertex -11.0648 1.17275 4.5
      vertex -12.3338 1.46239 4.5
    endloop
  endfacet
  facet normal -0.222521 -0.974928 -0
    outer loop
      vertex -11.0648 1.17275 4.5
      vertex -12.3338 1.46239 1.5
      vertex -11.0648 1.17275 1.5
    endloop
  endfacet
  facet normal 0.62349 -0.781831 0
    outer loop
      vertex -13.3515 0.650826 1.5
      vertex -12.3338 1.46239 4.5
      vertex -13.3515 0.650826 4.5
    endloop
  endfacet
  facet normal 0.62349 -0.781831 0
    outer loop
      vertex -12.3338 1.46239 4.5
      vertex -13.3515 0.650826 1.5
      vertex -12.3338 1.46239 1.5
    endloop
  endfacet
  facet normal -0.900969 0.433884 0
    outer loop
      vertex -11.0648 -1.17275 1.5
      vertex -10.5 0 4.5
      vertex -10.5 0 1.5
    endloop
  endfacet
  facet normal -0.900969 0.433884 0
    outer loop
      vertex -10.5 0 4.5
      vertex -11.0648 -1.17275 1.5
      vertex -11.0648 -1.17275 4.5
    endloop
  endfacet
  facet normal -0.222521 0.974928 0
    outer loop
      vertex -11.0648 -1.17275 1.5
      vertex -12.3338 -1.46239 4.5
      vertex -11.0648 -1.17275 4.5
    endloop
  endfacet
  facet normal -0.222521 0.974928 0
    outer loop
      vertex -12.3338 -1.46239 4.5
      vertex -11.0648 -1.17275 1.5
      vertex -12.3338 -1.46239 1.5
    endloop
  endfacet
  facet normal 0.62349 0.781831 -0
    outer loop
      vertex -12.3338 -1.46239 1.5
      vertex -13.3515 -0.650826 4.5
      vertex -12.3338 -1.46239 4.5
    endloop
  endfacet
  facet normal 0.62349 0.781831 0
    outer loop
      vertex -13.3515 -0.650826 4.5
      vertex -12.3338 -1.46239 1.5
      vertex -13.3515 -0.650826 1.5
    endloop
  endfacet
  facet normal -0 0 1
    outer loop
      vertex -15 5 22
      vertex 25 2 22
      vertex 25 5 22
    endloop
  endfacet
  facet normal 0 0 1
    outer loop
      vertex 25 2 22
      vertex -15 5 22
      vertex -15 2 22
    endloop
  endfacet
  facet normal 1 0 0
    outer loop
      vertex 25 -2 22
      vertex 25 -5 22
      vertex 25 -2 1.5
    endloop
  endfacet
  facet normal 1 0 0
    outer loop
      vertex 25 2 1.5
      vertex 25 5 22
      vertex 25 2 22
    endloop
  endfacet
  facet normal 1 0 0
    outer loop
      vertex 25 5 22
      vertex 25 2 1.5
      vertex 25 5 -1.5
    endloop
  endfacet
  facet normal 1 -0 0
    outer loop
      vertex 25 -2 1.5
      vertex 25 5 -1.5
      vertex 25 2 1.5
    endloop
  endfacet
  facet normal 1 0 0
    outer loop
      vertex 25 -2 1.5
      vertex 25 -5 -1.5
      vertex 25 5 -1.5
    endloop
  endfacet
  facet normal 1 0 0
    outer loop
      vertex 25 -5 -1.5
      vertex 25 -2 1.5
      vertex 25 -5 22
    endloop
  endfacet
  facet normal 0 0 -1
    outer loop
      vertex -5 -5 -1.5
      vertex 25 5 -1.5
      vertex 25 -5 -1.5
    endloop
  endfacet
  facet normal -0 0 -1
    outer loop
      vertex 25 5 -1.5
      vertex -5 -5 -1.5
      vertex -5 5 -1.5
    endloop
  endfacet
  facet normal 0 -1 0
    outer loop
      vertex -5 2 4.5
      vertex -15 2 22
      vertex -15 2 4.5
    endloop
  endfacet
  facet normal 0 -1 0
    outer loop
      vertex -15 2 22
      vertex -5 2 4.5
      vertex 25 2 22
    endloop
  endfacet
  facet normal 0 -1 0
    outer loop
      vertex 25 2 1.5
      vertex -5 2 4.5
      vertex -5 2 1.5
    endloop
  endfacet
  facet normal 0 -1 0
    outer loop
      vertex -5 2 4.5
      vertex 25 2 1.5
      vertex 25 2 22
    endloop
  endfacet
  facet normal 0 1 0
    outer loop
      vertex 25 5 22
      vertex -5 5 1.5
      vertex -15 5 22
    endloop
  endfacet
  facet normal 0 1 -0
    outer loop
      vertex 25 5 -1.5
      vertex -5 5 1.5
      vertex 25 5 22
    endloop
  endfacet
  facet normal 0 1 0
    outer loop
      vertex -5 5 1.5
      vertex 25 5 -1.5
      vertex -5 5 -1.5
    endloop
  endfacet
  facet normal 0 1 0
    outer loop
      vertex -15 5 22
      vertex -5 5 1.5
      vertex -15 5 1.5
    endloop
  endfacet
  facet normal -0 0 1
    outer loop
      vertex -15 -2 22
      vertex 25 -5 22
      vertex 25 -2 22
    endloop
  endfacet
  facet normal 0 0 1
    outer loop
      vertex 25 -5 22
      vertex -15 -2 22
      vertex -15 -5 22
    endloop
  endfacet
  facet normal 0 1 0
    outer loop
      vertex 25 -2 22
      vertex -5 -2 4.5
      vertex -15 -2 22
    endloop
  endfacet
  facet normal 0 1 -0
    outer loop
      vertex 25 -2 1.5
      vertex -5 -2 4.5
      vertex 25 -2 22
    endloop
  endfacet
  facet normal 0 1 0
    outer loop
      vertex -5 -2 4.5
      vertex 25 -2 1.5
      vertex -5 -2 1.5
    endloop
  endfacet
  facet normal 0 1 0
    outer loop
      vertex -15 -2 22
      vertex -5 -2 4.5
      vertex -15 -2 4.5
    endloop
  endfacet
  facet normal 0 -1 0
    outer loop
      vertex -5 -5 1.5
      vertex -15 -5 22
      vertex -15 -5 1.5
    endloop
  endfacet
  facet normal 0 -1 0
    outer loop
      vertex -15 -5 22
      vertex -5 -5 1.5
      vertex 25 -5 22
    endloop
  endfacet
  facet normal 0 -1 0
    outer loop
      vertex 25 -5 -1.5
      vertex -5 -5 1.5
      vertex -5 -5 -1.5
    endloop
  endfacet
  facet normal 0 -1 0
    outer loop
      vertex -5 -5 1.5
      vertex 25 -5 -1.5
      vertex 25 -5 22
    endloop
  endfacet
  facet normal -0 0 1
    outer loop
      vertex -5 2 1.5
      vertex 25 -2 1.5
      vertex 25 2 1.5
    endloop
  endfacet
  facet normal 0 0 1
    outer loop
      vertex 25 -2 1.5
      vertex -5 2 1.5
      vertex -5 -2 1.5
    endloop
  endfacet
endsolid OpenSCAD_Model
