solid OpenSCAD_Model
  facet normal 0.986361 0.164594 0
    outer loop
      vertex 5.8 0 5
      vertex 5.48574 1.88326 3
      vertex 5.48574 1.88326 5
    endloop
  endfacet
  facet normal 0.986361 0.164594 0
    outer loop
      vertex 5.48574 1.88326 3
      vertex 5.8 0 5
      vertex 5.8 0 3
    endloop
  endfacet
  facet normal -1 0 0
    outer loop
      vertex -5.72089 -0.954648 0
      vertex -5.72089 0.954648 5
      vertex -5.72089 0.954648 0
    endloop
  endfacet
  facet normal -1 -0 0
    outer loop
      vertex -5.72089 0.954648 5
      vertex -5.72089 -0.954648 0
      vertex -5.72089 -0.954648 5
    endloop
  endfacet
  facet normal -0.245485 0.9694 0
    outer loop
      vertex -0.47896 5.78019 0
      vertex -2.32983 5.31149 5
      vertex -0.47896 5.78019 5
    endloop
  endfacet
  facet normal -0.245485 0.9694 0
    outer loop
      vertex -2.32983 5.31149 5
      vertex -0.47896 5.78019 0
      vertex -2.32983 5.31149 0
    endloop
  endfacet
  facet normal -0 0 1
    outer loop
      vertex 20.9511 0.309016 3
      vertex 22.5 0 3
      vertex 21.7678 1.76777 3
    endloop
  endfacet
  facet normal 0 0 1
    outer loop
      vertex 20.9511 -0.309016 3
      vertex 22.5 0 3
      vertex 21 0 3
    endloop
  endfacet
  facet normal 0 0 1
    outer loop
      vertex 22.5 0 3
      vertex 20.9511 0.309016 3
      vertex 21 0 3
    endloop
  endfacet
  facet normal 0 0 1
    outer loop
      vertex 21.7678 1.76777 3
      vertex 20.809 0.587785 3
      vertex 20.9511 0.309016 3
    endloop
  endfacet
  facet normal 0 0 1
    outer loop
      vertex 21.7678 1.76777 3
      vertex 20.5878 0.809016 3
      vertex 20.809 0.587785 3
    endloop
  endfacet
  facet normal 0 0 1
    outer loop
      vertex 21.7678 1.76777 3
      vertex 20.309 0.951056 3
      vertex 20.5878 0.809016 3
    endloop
  endfacet
  facet normal 0 0 1
    outer loop
      vertex 20 2.5 3
      vertex 20.309 0.951056 3
      vertex 21.7678 1.76777 3
    endloop
  endfacet
  facet normal 0 0 1
    outer loop
      vertex 20 2.5 3
      vertex 20 1 3
      vertex 20.309 0.951056 3
    endloop
  endfacet
  facet normal 0 0 1
    outer loop
      vertex 20 2.5 3
      vertex 19.691 0.951056 3
      vertex 20 1 3
    endloop
  endfacet
  facet normal 0 0 1
    outer loop
      vertex 20 2.5 3
      vertex 19.4122 0.809016 3
      vertex 19.691 0.951056 3
    endloop
  endfacet
  facet normal 0 0 1
    outer loop
      vertex 20 2.5 3
      vertex 19.191 0.587785 3
      vertex 19.4122 0.809016 3
    endloop
  endfacet
  facet normal -0 0 1
    outer loop
      vertex 5.48574 1.88326 3
      vertex 19.191 0.587785 3
      vertex 20 2.5 3
    endloop
  endfacet
  facet normal 0 0 1
    outer loop
      vertex 19.0489 0.309016 3
      vertex 5.8 0 3
      vertex 19 0 3
    endloop
  endfacet
  facet normal 0 0 1
    outer loop
      vertex 19.191 0.587785 3
      vertex 5.48574 1.88326 3
      vertex 19.0489 0.309016 3
    endloop
  endfacet
  facet normal 0 0 1
    outer loop
      vertex 19.0489 0.309016 3
      vertex 5.48574 1.88326 3
      vertex 5.8 0 3
    endloop
  endfacet
  facet normal 0 0 1
    outer loop
      vertex 20 2.5 3
      vertex 4.57701 3.56243 3
      vertex 5.48574 1.88326 3
    endloop
  endfacet
  facet normal 0 0 1
    outer loop
      vertex 20 2.5 3
      vertex 3.1723 4.85557 3
      vertex 4.57701 3.56243 3
    endloop
  endfacet
  facet normal -0 -0 1
    outer loop
      vertex 3.1723 4.85557 3
      vertex 20 2.5 3
      vertex 1.42382 5.62252 3
    endloop
  endfacet
  facet normal 0 0 1
    outer loop
      vertex 22.5 0 3
      vertex 20.9511 -0.309016 3
      vertex 21.7678 -1.76777 3
    endloop
  endfacet
  facet normal -0 0 1
    outer loop
      vertex 20.809 -0.587785 3
      vertex 21.7678 -1.76777 3
      vertex 20.9511 -0.309016 3
    endloop
  endfacet
  facet normal -0 0 1
    outer loop
      vertex 20.5878 -0.809016 3
      vertex 21.7678 -1.76777 3
      vertex 20.809 -0.587785 3
    endloop
  endfacet
  facet normal -0 0 1
    outer loop
      vertex 20.309 -0.951056 3
      vertex 21.7678 -1.76777 3
      vertex 20.5878 -0.809016 3
    endloop
  endfacet
  facet normal 0 0 1
    outer loop
      vertex 20 -2.5 3
      vertex 20.309 -0.951056 3
      vertex 20 -1 3
    endloop
  endfacet
  facet normal 0 0 1
    outer loop
      vertex 20.309 -0.951056 3
      vertex 20 -2.5 3
      vertex 21.7678 -1.76777 3
    endloop
  endfacet
  facet normal 0 0 1
    outer loop
      vertex 19.691 -0.951056 3
      vertex 20 -2.5 3
      vertex 20 -1 3
    endloop
  endfacet
  facet normal 0 0 1
    outer loop
      vertex 19.4122 -0.809016 3
      vertex 20 -2.5 3
      vertex 19.691 -0.951056 3
    endloop
  endfacet
  facet normal 0 0 1
    outer loop
      vertex 19.191 -0.587785 3
      vertex 20 -2.5 3
      vertex 19.4122 -0.809016 3
    endloop
  endfacet
  facet normal 0 0 1
    outer loop
      vertex 5.48574 -1.88326 3
      vertex 19.191 -0.587785 3
      vertex 19.0489 -0.309016 3
    endloop
  endfacet
  facet normal -0 0 1
    outer loop
      vertex 5.8 0 3
      vertex 19.0489 -0.309016 3
      vertex 19 0 3
    endloop
  endfacet
  facet normal 0 0 1
    outer loop
      vertex 5.48574 -1.88326 3
      vertex 19.0489 -0.309016 3
      vertex 5.8 0 3
    endloop
  endfacet
  facet normal 0 0 1
    outer loop
      vertex 19.191 -0.587785 3
      vertex 5.48574 -1.88326 3
      vertex 20 -2.5 3
    endloop
  endfacet
  facet normal 0 0 1
    outer loop
      vertex 4.57701 -3.56243 3
      vertex 20 -2.5 3
      vertex 5.48574 -1.88326 3
    endloop
  endfacet
  facet normal 0 0 1
    outer loop
      vertex 3.1723 -4.85557 3
      vertex 20 -2.5 3
      vertex 4.57701 -3.56243 3
    endloop
  endfacet
  facet normal 0 0 1
    outer loop
      vertex 20 -2.5 3
      vertex 3.1723 -4.85557 3
      vertex 1.42382 -5.62252 3
    endloop
  endfacet
  facet normal 0 0 -1
    outer loop
      vertex 1.5 0 3
      vertex 2.345 0 3
      vertex 2.23023 -0.724645 3
    endloop
  endfacet
  facet normal 0 0 -1
    outer loop
      vertex 1.42658 -0.463525 3
      vertex 2.23023 -0.724645 3
      vertex 1.89714 -1.37836 3
    endloop
  endfacet
  facet normal 0 0 -1
    outer loop
      vertex 2.345 0 3
      vertex 1.5 0 3
      vertex 2.23023 0.724645 3
    endloop
  endfacet
  facet normal 0 0 -1
    outer loop
      vertex 1.42658 0.463525 3
      vertex 2.23023 0.724645 3
      vertex 1.5 0 3
    endloop
  endfacet
  facet normal 0 0 -1
    outer loop
      vertex 2.23023 -0.724645 3
      vertex 1.42658 -0.463525 3
      vertex 1.5 0 3
    endloop
  endfacet
  facet normal 0 0 -1
    outer loop
      vertex 1.21352 -0.881678 3
      vertex 1.89714 -1.37836 3
      vertex 1.37836 -1.89714 3
    endloop
  endfacet
  facet normal 0 0 -1
    outer loop
      vertex 1.89714 -1.37836 3
      vertex 1.21352 -0.881678 3
      vertex 1.42658 -0.463525 3
    endloop
  endfacet
  facet normal 0 0 -1
    outer loop
      vertex 1.37836 -1.89714 3
      vertex 0.881678 -1.21352 3
      vertex 1.21352 -0.881678 3
    endloop
  endfacet
  facet normal 0 0 -1
    outer loop
      vertex 0.724645 -2.23023 3
      vertex 0.881678 -1.21352 3
      vertex 1.37836 -1.89714 3
    endloop
  endfacet
  facet normal 0 0 -1
    outer loop
      vertex 0.724645 -2.23023 3
      vertex 0.463525 -1.42658 3
      vertex 0.881678 -1.21352 3
    endloop
  endfacet
  facet normal 0 0 -1
    outer loop
      vertex 0 -2.345 3
      vertex 0.463525 -1.42658 3
      vertex 0.724645 -2.23023 3
    endloop
  endfacet
  facet normal 0 0 -1
    outer loop
      vertex 0 -2.345 3
      vertex 0 -1.5 3
      vertex 0.463525 -1.42658 3
    endloop
  endfacet
  facet normal 0 0 -1
    outer loop
      vertex 0 -2.345 3
      vertex -0.463525 -1.42658 3
      vertex 0 -1.5 3
    endloop
  endfacet
  facet normal 0 0 -1
    outer loop
      vertex -0.724645 -2.23023 3
      vertex -0.463525 -1.42658 3
      vertex 0 -2.345 3
    endloop
  endfacet
  facet normal 0 0 -1
    outer loop
      vertex -0.724645 -2.23023 3
      vertex -0.881678 -1.21352 3
      vertex -0.463525 -1.42658 3
    endloop
  endfacet
  facet normal 0 0 -1
    outer loop
      vertex -1.37836 -1.89714 3
      vertex -0.881678 -1.21352 3
      vertex -0.724645 -2.23023 3
    endloop
  endfacet
  facet normal -0 0 -1
    outer loop
      vertex -0.881678 -1.21352 3
      vertex -1.37836 -1.89714 3
      vertex -1.21352 -0.881678 3
    endloop
  endfacet
  facet normal 0 0 -1
    outer loop
      vertex -1.89714 -1.37836 3
      vertex -1.21352 -0.881678 3
      vertex -1.37836 -1.89714 3
    endloop
  endfacet
  facet normal -0 0 -1
    outer loop
      vertex -1.21352 -0.881678 3
      vertex -1.89714 -1.37836 3
      vertex -1.42658 -0.463525 3
    endloop
  endfacet
  facet normal 0 0 -1
    outer loop
      vertex -2.23023 -0.724645 3
      vertex -1.42658 -0.463525 3
      vertex -1.89714 -1.37836 3
    endloop
  endfacet
  facet normal -0 0 -1
    outer loop
      vertex 2.23023 0.724645 3
      vertex 1.42658 0.463525 3
      vertex 1.89714 1.37836 3
    endloop
  endfacet
  facet normal 0 0 -1
    outer loop
      vertex 1.21352 0.881678 3
      vertex 1.89714 1.37836 3
      vertex 1.42658 0.463525 3
    endloop
  endfacet
  facet normal -0 0 -1
    outer loop
      vertex 1.89714 1.37836 3
      vertex 1.21352 0.881678 3
      vertex 1.37836 1.89714 3
    endloop
  endfacet
  facet normal 0 0 -1
    outer loop
      vertex 0.881678 1.21352 3
      vertex 1.37836 1.89714 3
      vertex 1.21352 0.881678 3
    endloop
  endfacet
  facet normal 0 0 -1
    outer loop
      vertex 0.881678 1.21352 3
      vertex 0.724645 2.23023 3
      vertex 1.37836 1.89714 3
    endloop
  endfacet
  facet normal 0 0 -1
    outer loop
      vertex 0.463525 1.42658 3
      vertex 0.724645 2.23023 3
      vertex 0.881678 1.21352 3
    endloop
  endfacet
  facet normal 0 0 -1
    outer loop
      vertex 0 1.5 3
      vertex 0.724645 2.23023 3
      vertex 0.463525 1.42658 3
    endloop
  endfacet
  facet normal 0 0 -1
    outer loop
      vertex 0 1.5 3
      vertex 0 2.345 3
      vertex 0.724645 2.23023 3
    endloop
  endfacet
  facet normal 0 0 -1
    outer loop
      vertex -0.463525 1.42658 3
      vertex 0 2.345 3
      vertex 0 1.5 3
    endloop
  endfacet
  facet normal 0 0 -1
    outer loop
      vertex -0.463525 1.42658 3
      vertex -0.724645 2.23023 3
      vertex 0 2.345 3
    endloop
  endfacet
  facet normal 0 0 -1
    outer loop
      vertex -0.881678 1.21352 3
      vertex -0.724645 2.23023 3
      vertex -0.463525 1.42658 3
    endloop
  endfacet
  facet normal 0 0 -1
    outer loop
      vertex -1.37836 1.89714 3
      vertex -0.881678 1.21352 3
      vertex -1.21352 0.881678 3
    endloop
  endfacet
  facet normal 0 0 -1
    outer loop
      vertex -0.881678 1.21352 3
      vertex -1.37836 1.89714 3
      vertex -0.724645 2.23023 3
    endloop
  endfacet
  facet normal 0 0 -1
    outer loop
      vertex -1.89714 1.37836 3
      vertex -1.21352 0.881678 3
      vertex -1.42658 0.463525 3
    endloop
  endfacet
  facet normal 0 0 -1
    outer loop
      vertex -2.23023 0.724645 3
      vertex -1.42658 0.463525 3
      vertex -1.5 0 3
    endloop
  endfacet
  facet normal -0 0 -1
    outer loop
      vertex -1.42658 -0.463525 3
      vertex -2.23023 -0.724645 3
      vertex -1.5 0 3
    endloop
  endfacet
  facet normal 0 0 -1
    outer loop
      vertex -1.21352 0.881678 3
      vertex -1.89714 1.37836 3
      vertex -1.37836 1.89714 3
    endloop
  endfacet
  facet normal 0 0 -1
    outer loop
      vertex -2.345 0 3
      vertex -1.5 0 3
      vertex -2.23023 -0.724645 3
    endloop
  endfacet
  facet normal 0 0 -1
    outer loop
      vertex -1.42658 0.463525 3
      vertex -2.23023 0.724645 3
      vertex -1.89714 1.37836 3
    endloop
  endfacet
  facet normal 0 0 -1
    outer loop
      vertex -1.5 0 3
      vertex -2.345 0 3
      vertex -2.23023 0.724645 3
    endloop
  endfacet
  facet normal 0.401696 0.915773 -0
    outer loop
      vertex 3.1723 4.85557 3
      vertex 1.42382 5.62252 5
      vertex 3.1723 4.85557 5
    endloop
  endfacet
  facet normal 0.401696 0.915773 0
    outer loop
      vertex 1.42382 5.62252 5
      vertex 3.1723 4.85557 3
      vertex 1.42382 5.62252 3
    endloop
  endfacet
  facet normal 0.879474 0.475947 0
    outer loop
      vertex 5.48574 1.88326 5
      vertex 4.57701 3.56243 3
      vertex 4.57701 3.56243 5
    endloop
  endfacet
  facet normal 0.879474 0.475947 0
    outer loop
      vertex 4.57701 3.56243 3
      vertex 5.48574 1.88326 5
      vertex 5.48574 1.88326 3
    endloop
  endfacet
  facet normal 0.0825791 0.996585 -0
    outer loop
      vertex 1.42382 5.62252 3
      vertex -0.47896 5.78019 5
      vertex 1.42382 5.62252 5
    endloop
  endfacet
  facet normal 0.0825791 0.996585 0
    outer loop
      vertex -0.47896 5.78019 0
      vertex 1.42382 5.62252 3
      vertex 1.42382 5.62252 0
    endloop
  endfacet
  facet normal 0.0825791 0.996585 0
    outer loop
      vertex 1.42382 5.62252 3
      vertex -0.47896 5.78019 0
      vertex -0.47896 5.78019 5
    endloop
  endfacet
  facet normal -0.78914 0.614213 0
    outer loop
      vertex -5.10095 2.76049 0
      vertex -3.92823 4.2672 5
      vertex -3.92823 4.2672 0
    endloop
  endfacet
  facet normal -0.78914 0.614213 0
    outer loop
      vertex -3.92823 4.2672 5
      vertex -5.10095 2.76049 0
      vertex -5.10095 2.76049 5
    endloop
  endfacet
  facet normal -0.945817 0.324699 0
    outer loop
      vertex -5.72089 0.954648 0
      vertex -5.10095 2.76049 5
      vertex -5.10095 2.76049 0
    endloop
  endfacet
  facet normal -0.945817 0.324699 0
    outer loop
      vertex -5.10095 2.76049 5
      vertex -5.72089 0.954648 0
      vertex -5.72089 0.954648 5
    endloop
  endfacet
  facet normal -0 0 1
    outer loop
      vertex 1.42658 0.463525 5
      vertex 5.8 0 5
      vertex 5.48574 1.88326 5
    endloop
  endfacet
  facet normal 0 0 1
    outer loop
      vertex 1.21352 0.881678 5
      vertex 5.48574 1.88326 5
      vertex 4.57701 3.56243 5
    endloop
  endfacet
  facet normal 0 0 1
    outer loop
      vertex 5.8 0 5
      vertex 1.42658 0.463525 5
      vertex 1.5 0 5
    endloop
  endfacet
  facet normal 0 0 1
    outer loop
      vertex 0.881678 1.21352 5
      vertex 4.57701 3.56243 5
      vertex 3.1723 4.85557 5
    endloop
  endfacet
  facet normal 0 0 1
    outer loop
      vertex 1.42658 -0.463525 5
      vertex 5.8 0 5
      vertex 1.5 0 5
    endloop
  endfacet
  facet normal -0 0 1
    outer loop
      vertex 1.21352 -0.881678 5
      vertex 5.48574 -1.88326 5
      vertex 1.42658 -0.463525 5
    endloop
  endfacet
  facet normal 0 0 1
    outer loop
      vertex 5.8 0 5
      vertex 1.42658 -0.463525 5
      vertex 5.48574 -1.88326 5
    endloop
  endfacet
  facet normal 0 0 1
    outer loop
      vertex 0.463525 1.42658 5
      vertex 3.1723 4.85557 5
      vertex 1.42382 5.62252 5
    endloop
  endfacet
  facet normal 0 0 1
    outer loop
      vertex 5.48574 1.88326 5
      vertex 1.21352 0.881678 5
      vertex 1.42658 0.463525 5
    endloop
  endfacet
  facet normal 0 0 1
    outer loop
      vertex 4.57701 3.56243 5
      vertex 0.881678 1.21352 5
      vertex 1.21352 0.881678 5
    endloop
  endfacet
  facet normal 0 0 1
    outer loop
      vertex 3.1723 4.85557 5
      vertex 0.463525 1.42658 5
      vertex 0.881678 1.21352 5
    endloop
  endfacet
  facet normal 0 0 1
    outer loop
      vertex 1.42382 5.62252 5
      vertex 0 1.5 5
      vertex 0.463525 1.42658 5
    endloop
  endfacet
  facet normal 0 0 1
    outer loop
      vertex -0.47896 5.78019 5
      vertex 0 1.5 5
      vertex 1.42382 5.62252 5
    endloop
  endfacet
  facet normal 0 0 1
    outer loop
      vertex 0 1.5 5
      vertex -0.47896 5.78019 5
      vertex -0.463525 1.42658 5
    endloop
  endfacet
  facet normal -0 0 1
    outer loop
      vertex -2.32983 5.31149 5
      vertex -0.463525 1.42658 5
      vertex -0.47896 5.78019 5
    endloop
  endfacet
  facet normal 0 0 1
    outer loop
      vertex -0.463525 1.42658 5
      vertex -2.32983 5.31149 5
      vertex -0.881678 1.21352 5
    endloop
  endfacet
  facet normal -0 0 1
    outer loop
      vertex -3.92823 4.2672 5
      vertex -0.881678 1.21352 5
      vertex -2.32983 5.31149 5
    endloop
  endfacet
  facet normal -0 0 1
    outer loop
      vertex -5.10095 2.76049 5
      vertex -1.21352 0.881678 5
      vertex -3.92823 4.2672 5
    endloop
  endfacet
  facet normal 0 0 1
    outer loop
      vertex -0.881678 1.21352 5
      vertex -3.92823 4.2672 5
      vertex -1.21352 0.881678 5
    endloop
  endfacet
  facet normal 0 0 1
    outer loop
      vertex 5.48574 -1.88326 5
      vertex 1.21352 -0.881678 5
      vertex 4.57701 -3.56243 5
    endloop
  endfacet
  facet normal -0 0 1
    outer loop
      vertex 0.881678 -1.21352 5
      vertex 4.57701 -3.56243 5
      vertex 1.21352 -0.881678 5
    endloop
  endfacet
  facet normal 0 0 1
    outer loop
      vertex 4.57701 -3.56243 5
      vertex 0.881678 -1.21352 5
      vertex 3.1723 -4.85557 5
    endloop
  endfacet
  facet normal -0 0 1
    outer loop
      vertex 0.463525 -1.42658 5
      vertex 3.1723 -4.85557 5
      vertex 0.881678 -1.21352 5
    endloop
  endfacet
  facet normal 0 0 1
    outer loop
      vertex 3.1723 -4.85557 5
      vertex 0.463525 -1.42658 5
      vertex 1.42382 -5.62252 5
    endloop
  endfacet
  facet normal -0 0 1
    outer loop
      vertex 0 -1.5 5
      vertex 1.42382 -5.62252 5
      vertex 0.463525 -1.42658 5
    endloop
  endfacet
  facet normal 0 0 1
    outer loop
      vertex -0.47896 -5.78019 5
      vertex 0 -1.5 5
      vertex -0.463525 -1.42658 5
    endloop
  endfacet
  facet normal 0 0 1
    outer loop
      vertex 0 -1.5 5
      vertex -0.47896 -5.78019 5
      vertex 1.42382 -5.62252 5
    endloop
  endfacet
  facet normal 0 0 1
    outer loop
      vertex -2.32983 -5.31149 5
      vertex -0.463525 -1.42658 5
      vertex -0.881678 -1.21352 5
    endloop
  endfacet
  facet normal 0 0 1
    outer loop
      vertex -3.92823 -4.2672 5
      vertex -0.881678 -1.21352 5
      vertex -1.21352 -0.881678 5
    endloop
  endfacet
  facet normal 0 0 1
    outer loop
      vertex -5.10095 -2.76049 5
      vertex -1.21352 -0.881678 5
      vertex -1.42658 -0.463525 5
    endloop
  endfacet
  facet normal 0 0 1
    outer loop
      vertex -0.463525 -1.42658 5
      vertex -2.32983 -5.31149 5
      vertex -0.47896 -5.78019 5
    endloop
  endfacet
  facet normal 0 0 1
    outer loop
      vertex -5.72089 -0.954648 5
      vertex -1.42658 -0.463525 5
      vertex -1.5 0 5
    endloop
  endfacet
  facet normal 0 0 1
    outer loop
      vertex -1.21352 0.881678 5
      vertex -5.10095 2.76049 5
      vertex -1.42658 0.463525 5
    endloop
  endfacet
  facet normal -0 0 1
    outer loop
      vertex -5.72089 0.954648 5
      vertex -1.42658 0.463525 5
      vertex -5.10095 2.76049 5
    endloop
  endfacet
  facet normal 0 0 1
    outer loop
      vertex -0.881678 -1.21352 5
      vertex -3.92823 -4.2672 5
      vertex -2.32983 -5.31149 5
    endloop
  endfacet
  facet normal 0 0 1
    outer loop
      vertex -1.42658 0.463525 5
      vertex -5.72089 0.954648 5
      vertex -1.5 0 5
    endloop
  endfacet
  facet normal 0 0 1
    outer loop
      vertex -1.21352 -0.881678 5
      vertex -5.10095 -2.76049 5
      vertex -3.92823 -4.2672 5
    endloop
  endfacet
  facet normal 0 0 1
    outer loop
      vertex -5.72089 -0.954648 5
      vertex -1.5 0 5
      vertex -5.72089 0.954648 5
    endloop
  endfacet
  facet normal 0 0 1
    outer loop
      vertex -1.42658 -0.463525 5
      vertex -5.72089 -0.954648 5
      vertex -5.10095 -2.76049 5
    endloop
  endfacet
  facet normal -0.546948 0.837166 0
    outer loop
      vertex -2.32983 5.31149 0
      vertex -3.92823 4.2672 5
      vertex -2.32983 5.31149 5
    endloop
  endfacet
  facet normal -0.546948 0.837166 0
    outer loop
      vertex -3.92823 4.2672 5
      vertex -2.32983 5.31149 0
      vertex -3.92823 4.2672 0
    endloop
  endfacet
  facet normal -0.245485 -0.9694 0
    outer loop
      vertex -2.32983 -5.31149 0
      vertex -0.47896 -5.78019 5
      vertex -2.32983 -5.31149 5
    endloop
  endfacet
  facet normal -0.245485 -0.9694 -0
    outer loop
      vertex -0.47896 -5.78019 5
      vertex -2.32983 -5.31149 0
      vertex -0.47896 -5.78019 0
    endloop
  endfacet
  facet normal -0.945817 -0.324699 0
    outer loop
      vertex -5.10095 -2.76049 0
      vertex -5.72089 -0.954648 5
      vertex -5.72089 -0.954648 0
    endloop
  endfacet
  facet normal -0.945817 -0.324699 0
    outer loop
      vertex -5.72089 -0.954648 5
      vertex -5.10095 -2.76049 0
      vertex -5.10095 -2.76049 5
    endloop
  endfacet
  facet normal 0.677281 0.735724 -0
    outer loop
      vertex 4.57701 3.56243 3
      vertex 3.1723 4.85557 5
      vertex 4.57701 3.56243 5
    endloop
  endfacet
  facet normal 0.677281 0.735724 0
    outer loop
      vertex 3.1723 4.85557 5
      vertex 4.57701 3.56243 3
      vertex 3.1723 4.85557 3
    endloop
  endfacet
  facet normal 0.879474 -0.475947 0
    outer loop
      vertex 4.57701 -3.56243 5
      vertex 5.48574 -1.88326 3
      vertex 5.48574 -1.88326 5
    endloop
  endfacet
  facet normal 0.879474 -0.475947 0
    outer loop
      vertex 5.48574 -1.88326 3
      vertex 4.57701 -3.56243 5
      vertex 4.57701 -3.56243 3
    endloop
  endfacet
  facet normal 0.401696 -0.915773 0
    outer loop
      vertex 1.42382 -5.62252 3
      vertex 3.1723 -4.85557 5
      vertex 1.42382 -5.62252 5
    endloop
  endfacet
  facet normal 0.401696 -0.915773 0
    outer loop
      vertex 3.1723 -4.85557 5
      vertex 1.42382 -5.62252 3
      vertex 3.1723 -4.85557 3
    endloop
  endfacet
  facet normal 0.0825791 -0.996585 0
    outer loop
      vertex -0.47896 -5.78019 5
      vertex 1.42382 -5.62252 3
      vertex 1.42382 -5.62252 5
    endloop
  endfacet
  facet normal 0.0825791 -0.996585 0
    outer loop
      vertex -0.47896 -5.78019 0
      vertex 1.42382 -5.62252 3
      vertex -0.47896 -5.78019 5
    endloop
  endfacet
  facet normal 0.0825791 -0.996585 0
    outer loop
      vertex 1.42382 -5.62252 3
      vertex -0.47896 -5.78019 0
      vertex 1.42382 -5.62252 0
    endloop
  endfacet
  facet normal -0.78914 -0.614213 0
    outer loop
      vertex -3.92823 -4.2672 0
      vertex -5.10095 -2.76049 5
      vertex -5.10095 -2.76049 0
    endloop
  endfacet
  facet normal -0.78914 -0.614213 0
    outer loop
      vertex -5.10095 -2.76049 5
      vertex -3.92823 -4.2672 0
      vertex -3.92823 -4.2672 5
    endloop
  endfacet
  facet normal 0.986361 -0.164594 0
    outer loop
      vertex 5.48574 -1.88326 5
      vertex 5.8 0 3
      vertex 5.8 0 5
    endloop
  endfacet
  facet normal 0.986361 -0.164594 0
    outer loop
      vertex 5.8 0 3
      vertex 5.48574 -1.88326 5
      vertex 5.48574 -1.88326 3
    endloop
  endfacet
  facet normal 0.677281 -0.735724 0
    outer loop
      vertex 3.1723 -4.85557 3
      vertex 4.57701 -3.56243 5
      vertex 3.1723 -4.85557 5
    endloop
  endfacet
  facet normal 0.677281 -0.735724 0
    outer loop
      vertex 4.57701 -3.56243 5
      vertex 3.1723 -4.85557 3
      vertex 4.57701 -3.56243 3
    endloop
  endfacet
  facet normal -0.546948 -0.837166 0
    outer loop
      vertex -3.92823 -4.2672 0
      vertex -2.32983 -5.31149 5
      vertex -3.92823 -4.2672 5
    endloop
  endfacet
  facet normal -0.546948 -0.837166 -0
    outer loop
      vertex -2.32983 -5.31149 5
      vertex -3.92823 -4.2672 0
      vertex -2.32983 -5.31149 0
    endloop
  endfacet
  facet normal -0.987688 -0.156436 0
    outer loop
      vertex 1.5 0 3
      vertex 1.42658 0.463525 5
      vertex 1.42658 0.463525 3
    endloop
  endfacet
  facet normal -0.987688 -0.156436 0
    outer loop
      vertex 1.42658 0.463525 5
      vertex 1.5 0 3
      vertex 1.5 0 5
    endloop
  endfacet
  facet normal 0.987688 -0.156436 0
    outer loop
      vertex -1.5 0 5
      vertex -1.42658 0.463525 3
      vertex -1.42658 0.463525 5
    endloop
  endfacet
  facet normal 0.987688 -0.156436 0
    outer loop
      vertex -1.42658 0.463525 3
      vertex -1.5 0 5
      vertex -1.5 0 3
    endloop
  endfacet
  facet normal -0.156436 -0.987688 0
    outer loop
      vertex 0 1.5 3
      vertex 0.463525 1.42658 5
      vertex 0 1.5 5
    endloop
  endfacet
  facet normal -0.156436 -0.987688 -0
    outer loop
      vertex 0.463525 1.42658 5
      vertex 0 1.5 3
      vertex 0.463525 1.42658 3
    endloop
  endfacet
  facet normal 0.156436 0.987688 -0
    outer loop
      vertex 0 -1.5 3
      vertex -0.463525 -1.42658 5
      vertex 0 -1.5 5
    endloop
  endfacet
  facet normal 0.156436 0.987688 0
    outer loop
      vertex -0.463525 -1.42658 5
      vertex 0 -1.5 3
      vertex -0.463525 -1.42658 3
    endloop
  endfacet
  facet normal -0.707107 -0.707107 0
    outer loop
      vertex 1.21352 0.881678 3
      vertex 0.881678 1.21352 5
      vertex 0.881678 1.21352 3
    endloop
  endfacet
  facet normal -0.707107 -0.707107 0
    outer loop
      vertex 0.881678 1.21352 5
      vertex 1.21352 0.881678 3
      vertex 1.21352 0.881678 5
    endloop
  endfacet
  facet normal -0.891007 -0.45399 0
    outer loop
      vertex 1.42658 0.463525 3
      vertex 1.21352 0.881678 5
      vertex 1.21352 0.881678 3
    endloop
  endfacet
  facet normal -0.891007 -0.45399 0
    outer loop
      vertex 1.21352 0.881678 5
      vertex 1.42658 0.463525 3
      vertex 1.42658 0.463525 5
    endloop
  endfacet
  facet normal -0.45399 -0.891007 0
    outer loop
      vertex 0.463525 1.42658 3
      vertex 0.881678 1.21352 5
      vertex 0.463525 1.42658 5
    endloop
  endfacet
  facet normal -0.45399 -0.891007 -0
    outer loop
      vertex 0.881678 1.21352 5
      vertex 0.463525 1.42658 3
      vertex 0.881678 1.21352 3
    endloop
  endfacet
  facet normal 0.45399 -0.891007 0
    outer loop
      vertex -0.881678 1.21352 3
      vertex -0.463525 1.42658 5
      vertex -0.881678 1.21352 5
    endloop
  endfacet
  facet normal 0.45399 -0.891007 0
    outer loop
      vertex -0.463525 1.42658 5
      vertex -0.881678 1.21352 3
      vertex -0.463525 1.42658 3
    endloop
  endfacet
  facet normal 0.707107 -0.707107 0
    outer loop
      vertex -1.21352 0.881678 5
      vertex -0.881678 1.21352 3
      vertex -0.881678 1.21352 5
    endloop
  endfacet
  facet normal 0.707107 -0.707107 0
    outer loop
      vertex -0.881678 1.21352 3
      vertex -1.21352 0.881678 5
      vertex -1.21352 0.881678 3
    endloop
  endfacet
  facet normal 0.156436 -0.987688 0
    outer loop
      vertex -0.463525 1.42658 3
      vertex 0 1.5 5
      vertex -0.463525 1.42658 5
    endloop
  endfacet
  facet normal 0.156436 -0.987688 0
    outer loop
      vertex 0 1.5 5
      vertex -0.463525 1.42658 3
      vertex 0 1.5 3
    endloop
  endfacet
  facet normal -0.891007 0.45399 0
    outer loop
      vertex 1.21352 -0.881678 3
      vertex 1.42658 -0.463525 5
      vertex 1.42658 -0.463525 3
    endloop
  endfacet
  facet normal -0.891007 0.45399 0
    outer loop
      vertex 1.42658 -0.463525 5
      vertex 1.21352 -0.881678 3
      vertex 1.21352 -0.881678 5
    endloop
  endfacet
  facet normal 0.707107 0.707107 0
    outer loop
      vertex -0.881678 -1.21352 5
      vertex -1.21352 -0.881678 3
      vertex -1.21352 -0.881678 5
    endloop
  endfacet
  facet normal 0.707107 0.707107 0
    outer loop
      vertex -1.21352 -0.881678 3
      vertex -0.881678 -1.21352 5
      vertex -0.881678 -1.21352 3
    endloop
  endfacet
  facet normal 0.987688 0.156436 0
    outer loop
      vertex -1.42658 -0.463525 5
      vertex -1.5 0 3
      vertex -1.5 0 5
    endloop
  endfacet
  facet normal 0.987688 0.156436 0
    outer loop
      vertex -1.5 0 3
      vertex -1.42658 -0.463525 5
      vertex -1.42658 -0.463525 3
    endloop
  endfacet
  facet normal 0.891007 -0.45399 0
    outer loop
      vertex -1.42658 0.463525 5
      vertex -1.21352 0.881678 3
      vertex -1.21352 0.881678 5
    endloop
  endfacet
  facet normal 0.891007 -0.45399 0
    outer loop
      vertex -1.21352 0.881678 3
      vertex -1.42658 0.463525 5
      vertex -1.42658 0.463525 3
    endloop
  endfacet
  facet normal -0.987688 0.156436 0
    outer loop
      vertex 1.42658 -0.463525 3
      vertex 1.5 0 5
      vertex 1.5 0 3
    endloop
  endfacet
  facet normal -0.987688 0.156436 0
    outer loop
      vertex 1.5 0 5
      vertex 1.42658 -0.463525 3
      vertex 1.42658 -0.463525 5
    endloop
  endfacet
  facet normal -0.156436 0.987688 0
    outer loop
      vertex 0.463525 -1.42658 3
      vertex 0 -1.5 5
      vertex 0.463525 -1.42658 5
    endloop
  endfacet
  facet normal -0.156436 0.987688 0
    outer loop
      vertex 0 -1.5 5
      vertex 0.463525 -1.42658 3
      vertex 0 -1.5 3
    endloop
  endfacet
  facet normal -0.707107 0.707107 0
    outer loop
      vertex 0.881678 -1.21352 3
      vertex 1.21352 -0.881678 5
      vertex 1.21352 -0.881678 3
    endloop
  endfacet
  facet normal -0.707107 0.707107 0
    outer loop
      vertex 1.21352 -0.881678 5
      vertex 0.881678 -1.21352 3
      vertex 0.881678 -1.21352 5
    endloop
  endfacet
  facet normal 0.45399 0.891007 -0
    outer loop
      vertex -0.463525 -1.42658 3
      vertex -0.881678 -1.21352 5
      vertex -0.463525 -1.42658 5
    endloop
  endfacet
  facet normal 0.45399 0.891007 0
    outer loop
      vertex -0.881678 -1.21352 5
      vertex -0.463525 -1.42658 3
      vertex -0.881678 -1.21352 3
    endloop
  endfacet
  facet normal 0.891007 0.45399 0
    outer loop
      vertex -1.21352 -0.881678 5
      vertex -1.42658 -0.463525 3
      vertex -1.42658 -0.463525 5
    endloop
  endfacet
  facet normal 0.891007 0.45399 0
    outer loop
      vertex -1.42658 -0.463525 3
      vertex -1.21352 -0.881678 5
      vertex -1.21352 -0.881678 3
    endloop
  endfacet
  facet normal -0.45399 0.891007 0
    outer loop
      vertex 0.881678 -1.21352 3
      vertex 0.463525 -1.42658 5
      vertex 0.881678 -1.21352 5
    endloop
  endfacet
  facet normal -0.45399 0.891007 0
    outer loop
      vertex 0.463525 -1.42658 5
      vertex 0.881678 -1.21352 3
      vertex 0.463525 -1.42658 3
    endloop
  endfacet
  facet normal 0 0 -1
    outer loop
      vertex 20.9511 -0.309016 0
      vertex 22.5 0 0
      vertex 21.7678 -1.76777 0
    endloop
  endfacet
  facet normal 0 0 -1
    outer loop
      vertex 20.9511 0.309016 0
      vertex 22.5 0 0
      vertex 21 0 0
    endloop
  endfacet
  facet normal -0 0 -1
    outer loop
      vertex 22.5 0 0
      vertex 20.9511 -0.309016 0
      vertex 21 0 0
    endloop
  endfacet
  facet normal 0 0 -1
    outer loop
      vertex 21.7678 -1.76777 0
      vertex 20.809 -0.587785 0
      vertex 20.9511 -0.309016 0
    endloop
  endfacet
  facet normal 0 0 -1
    outer loop
      vertex 21.7678 -1.76777 0
      vertex 20.5878 -0.809016 0
      vertex 20.809 -0.587785 0
    endloop
  endfacet
  facet normal 0 0 -1
    outer loop
      vertex 21.7678 -1.76777 0
      vertex 20.309 -0.951056 0
      vertex 20.5878 -0.809016 0
    endloop
  endfacet
  facet normal 0 0 -1
    outer loop
      vertex 20 -2.5 0
      vertex 20.309 -0.951056 0
      vertex 21.7678 -1.76777 0
    endloop
  endfacet
  facet normal 0 0 -1
    outer loop
      vertex 20 -2.5 0
      vertex 20 -1 0
      vertex 20.309 -0.951056 0
    endloop
  endfacet
  facet normal 0 0 -1
    outer loop
      vertex 20 -2.5 0
      vertex 19.691 -0.951056 0
      vertex 20 -1 0
    endloop
  endfacet
  facet normal 0 0 -1
    outer loop
      vertex 20 -2.5 0
      vertex 19.4122 -0.809016 0
      vertex 19.691 -0.951056 0
    endloop
  endfacet
  facet normal 0 0 -1
    outer loop
      vertex 20 -2.5 0
      vertex 19.191 -0.587785 0
      vertex 19.4122 -0.809016 0
    endloop
  endfacet
  facet normal 0 0 -1
    outer loop
      vertex 1.42382 -5.62252 0
      vertex 19.191 -0.587785 0
      vertex 20 -2.5 0
    endloop
  endfacet
  facet normal 0 0 -1
    outer loop
      vertex 19.0489 -0.309016 0
      vertex 2.345 0 0
      vertex 19 0 0
    endloop
  endfacet
  facet normal -0 0 -1
    outer loop
      vertex 19.191 -0.587785 0
      vertex 1.42382 -5.62252 0
      vertex 19.0489 -0.309016 0
    endloop
  endfacet
  facet normal -0 0 -1
    outer loop
      vertex 19.0489 -0.309016 0
      vertex 2.23023 -0.724645 0
      vertex 2.345 0 0
    endloop
  endfacet
  facet normal 0 0 -1
    outer loop
      vertex 19.0489 -0.309016 0
      vertex 1.42382 -5.62252 0
      vertex 2.23023 -0.724645 0
    endloop
  endfacet
  facet normal 0 0 -1
    outer loop
      vertex 2.23023 -0.724645 0
      vertex 1.42382 -5.62252 0
      vertex 1.89714 -1.37836 0
    endloop
  endfacet
  facet normal 0 0 -1
    outer loop
      vertex 1.42382 -5.62252 0
      vertex 1.37836 -1.89714 0
      vertex 1.89714 -1.37836 0
    endloop
  endfacet
  facet normal 0 0 -1
    outer loop
      vertex 1.42382 -5.62252 0
      vertex 0.724645 -2.23023 0
      vertex 1.37836 -1.89714 0
    endloop
  endfacet
  facet normal 0 0 -1
    outer loop
      vertex 1.42382 -5.62252 0
      vertex 0 -2.345 0
      vertex 0.724645 -2.23023 0
    endloop
  endfacet
  facet normal 0 0 -1
    outer loop
      vertex -0.47896 -5.78019 0
      vertex 0 -2.345 0
      vertex 1.42382 -5.62252 0
    endloop
  endfacet
  facet normal 0 0 -1
    outer loop
      vertex -0.47896 -5.78019 0
      vertex -0.724645 -2.23023 0
      vertex 0 -2.345 0
    endloop
  endfacet
  facet normal 0 0 -1
    outer loop
      vertex -2.32983 -5.31149 0
      vertex -0.724645 -2.23023 0
      vertex -0.47896 -5.78019 0
    endloop
  endfacet
  facet normal -0 0 -1
    outer loop
      vertex -0.724645 -2.23023 0
      vertex -2.32983 -5.31149 0
      vertex -1.37836 -1.89714 0
    endloop
  endfacet
  facet normal 0 0 -1
    outer loop
      vertex -3.92823 -4.2672 0
      vertex -1.37836 -1.89714 0
      vertex -2.32983 -5.31149 0
    endloop
  endfacet
  facet normal -0 0 -1
    outer loop
      vertex -1.37836 -1.89714 0
      vertex -3.92823 -4.2672 0
      vertex -1.89714 -1.37836 0
    endloop
  endfacet
  facet normal 0 0 -1
    outer loop
      vertex -5.10095 -2.76049 0
      vertex -1.89714 -1.37836 0
      vertex -3.92823 -4.2672 0
    endloop
  endfacet
  facet normal -0 0 -1
    outer loop
      vertex -1.89714 -1.37836 0
      vertex -5.10095 -2.76049 0
      vertex -2.23023 -0.724645 0
    endloop
  endfacet
  facet normal 0 0 -1
    outer loop
      vertex 22.5 0 0
      vertex 20.9511 0.309016 0
      vertex 21.7678 1.76777 0
    endloop
  endfacet
  facet normal 0 0 -1
    outer loop
      vertex 20.809 0.587785 0
      vertex 21.7678 1.76777 0
      vertex 20.9511 0.309016 0
    endloop
  endfacet
  facet normal 0 0 -1
    outer loop
      vertex 20.5878 0.809016 0
      vertex 21.7678 1.76777 0
      vertex 20.809 0.587785 0
    endloop
  endfacet
  facet normal 0 0 -1
    outer loop
      vertex 20.309 0.951056 0
      vertex 21.7678 1.76777 0
      vertex 20.5878 0.809016 0
    endloop
  endfacet
  facet normal 0 0 -1
    outer loop
      vertex 20 2.5 0
      vertex 20.309 0.951056 0
      vertex 20 1 0
    endloop
  endfacet
  facet normal 0 0 -1
    outer loop
      vertex 20.309 0.951056 0
      vertex 20 2.5 0
      vertex 21.7678 1.76777 0
    endloop
  endfacet
  facet normal 0 0 -1
    outer loop
      vertex 19.691 0.951056 0
      vertex 20 2.5 0
      vertex 20 1 0
    endloop
  endfacet
  facet normal 0 0 -1
    outer loop
      vertex 19.4122 0.809016 0
      vertex 20 2.5 0
      vertex 19.691 0.951056 0
    endloop
  endfacet
  facet normal 0 0 -1
    outer loop
      vertex 19.191 0.587785 0
      vertex 20 2.5 0
      vertex 19.4122 0.809016 0
    endloop
  endfacet
  facet normal 0 0 -1
    outer loop
      vertex 1.42382 5.62252 0
      vertex 19.191 0.587785 0
      vertex 19.0489 0.309016 0
    endloop
  endfacet
  facet normal 0 0 -1
    outer loop
      vertex 2.345 0 0
      vertex 19.0489 0.309016 0
      vertex 19 0 0
    endloop
  endfacet
  facet normal 0 0 -1
    outer loop
      vertex 2.23023 0.724645 0
      vertex 19.0489 0.309016 0
      vertex 2.345 0 0
    endloop
  endfacet
  facet normal 0 0 -1
    outer loop
      vertex 1.42382 5.62252 0
      vertex 19.0489 0.309016 0
      vertex 2.23023 0.724645 0
    endloop
  endfacet
  facet normal 0 0 -1
    outer loop
      vertex 1.42382 5.62252 0
      vertex 2.23023 0.724645 0
      vertex 1.89714 1.37836 0
    endloop
  endfacet
  facet normal 0 0 -1
    outer loop
      vertex 19.191 0.587785 0
      vertex 1.42382 5.62252 0
      vertex 20 2.5 0
    endloop
  endfacet
  facet normal 0 0 -1
    outer loop
      vertex 1.37836 1.89714 0
      vertex 1.42382 5.62252 0
      vertex 1.89714 1.37836 0
    endloop
  endfacet
  facet normal 0 0 -1
    outer loop
      vertex 0.724645 2.23023 0
      vertex 1.42382 5.62252 0
      vertex 1.37836 1.89714 0
    endloop
  endfacet
  facet normal 0 0 -1
    outer loop
      vertex 0 2.345 0
      vertex 1.42382 5.62252 0
      vertex 0.724645 2.23023 0
    endloop
  endfacet
  facet normal 0 0 -1
    outer loop
      vertex 0 2.345 0
      vertex -0.47896 5.78019 0
      vertex 1.42382 5.62252 0
    endloop
  endfacet
  facet normal 0 0 -1
    outer loop
      vertex -0.724645 2.23023 0
      vertex -0.47896 5.78019 0
      vertex 0 2.345 0
    endloop
  endfacet
  facet normal 0 0 -1
    outer loop
      vertex -2.32983 5.31149 0
      vertex -0.724645 2.23023 0
      vertex -1.37836 1.89714 0
    endloop
  endfacet
  facet normal 0 0 -1
    outer loop
      vertex -3.92823 4.2672 0
      vertex -1.37836 1.89714 0
      vertex -1.89714 1.37836 0
    endloop
  endfacet
  facet normal 0 0 -1
    outer loop
      vertex -5.10095 2.76049 0
      vertex -1.89714 1.37836 0
      vertex -2.23023 0.724645 0
    endloop
  endfacet
  facet normal 0 0 -1
    outer loop
      vertex -0.724645 2.23023 0
      vertex -2.32983 5.31149 0
      vertex -0.47896 5.78019 0
    endloop
  endfacet
  facet normal 0 0 -1
    outer loop
      vertex -5.72089 0.954648 0
      vertex -2.23023 0.724645 0
      vertex -2.345 0 0
    endloop
  endfacet
  facet normal 0 0 -1
    outer loop
      vertex -5.72089 -0.954648 0
      vertex -2.23023 -0.724645 0
      vertex -5.10095 -2.76049 0
    endloop
  endfacet
  facet normal 0 0 -1
    outer loop
      vertex -1.37836 1.89714 0
      vertex -3.92823 4.2672 0
      vertex -2.32983 5.31149 0
    endloop
  endfacet
  facet normal -0 0 -1
    outer loop
      vertex -2.23023 -0.724645 0
      vertex -5.72089 -0.954648 0
      vertex -2.345 0 0
    endloop
  endfacet
  facet normal 0 0 -1
    outer loop
      vertex -1.89714 1.37836 0
      vertex -5.10095 2.76049 0
      vertex -3.92823 4.2672 0
    endloop
  endfacet
  facet normal 0 0 -1
    outer loop
      vertex -5.72089 0.954648 0
      vertex -2.345 0 0
      vertex -5.72089 -0.954648 0
    endloop
  endfacet
  facet normal 0 0 -1
    outer loop
      vertex -2.23023 0.724645 0
      vertex -5.72089 0.954648 0
      vertex -5.10095 2.76049 0
    endloop
  endfacet
  facet normal 0.382683 0.92388 -0
    outer loop
      vertex 21.7678 1.76777 0
      vertex 20 2.5 3
      vertex 21.7678 1.76777 3
    endloop
  endfacet
  facet normal 0.382683 0.92388 0
    outer loop
      vertex 20 2.5 3
      vertex 21.7678 1.76777 0
      vertex 20 2.5 0
    endloop
  endfacet
  facet normal 0.92388 0.382683 0
    outer loop
      vertex 22.5 0 3
      vertex 21.7678 1.76777 0
      vertex 21.7678 1.76777 3
    endloop
  endfacet
  facet normal 0.92388 0.382683 0
    outer loop
      vertex 21.7678 1.76777 0
      vertex 22.5 0 3
      vertex 22.5 0 0
    endloop
  endfacet
  facet normal 0.165767 0.986165 -0
    outer loop
      vertex 20 2.5 0
      vertex 1.42382 5.62252 3
      vertex 20 2.5 3
    endloop
  endfacet
  facet normal 0.165767 0.986165 0
    outer loop
      vertex 1.42382 5.62252 3
      vertex 20 2.5 0
      vertex 1.42382 5.62252 0
    endloop
  endfacet
  facet normal 0.165767 -0.986165 0
    outer loop
      vertex 1.42382 -5.62252 0
      vertex 20 -2.5 3
      vertex 1.42382 -5.62252 3
    endloop
  endfacet
  facet normal 0.165767 -0.986165 0
    outer loop
      vertex 20 -2.5 3
      vertex 1.42382 -5.62252 0
      vertex 20 -2.5 0
    endloop
  endfacet
  facet normal 0.92388 -0.382683 0
    outer loop
      vertex 21.7678 -1.76777 3
      vertex 22.5 0 0
      vertex 22.5 0 3
    endloop
  endfacet
  facet normal 0.92388 -0.382683 0
    outer loop
      vertex 22.5 0 0
      vertex 21.7678 -1.76777 3
      vertex 21.7678 -1.76777 0
    endloop
  endfacet
  facet normal 0.382683 -0.92388 0
    outer loop
      vertex 20 -2.5 0
      vertex 21.7678 -1.76777 3
      vertex 20 -2.5 3
    endloop
  endfacet
  facet normal 0.382683 -0.92388 0
    outer loop
      vertex 21.7678 -1.76777 3
      vertex 20 -2.5 0
      vertex 21.7678 -1.76777 0
    endloop
  endfacet
  facet normal -0.987688 -0.156434 0
    outer loop
      vertex 2.345 0 0
      vertex 2.23023 0.724645 3
      vertex 2.23023 0.724645 0
    endloop
  endfacet
  facet normal -0.987688 -0.156434 0
    outer loop
      vertex 2.23023 0.724645 3
      vertex 2.345 0 0
      vertex 2.345 0 3
    endloop
  endfacet
  facet normal 0.987688 -0.156434 0
    outer loop
      vertex -2.345 0 3
      vertex -2.23023 0.724645 0
      vertex -2.23023 0.724645 3
    endloop
  endfacet
  facet normal 0.987688 -0.156434 0
    outer loop
      vertex -2.23023 0.724645 0
      vertex -2.345 0 3
      vertex -2.345 0 0
    endloop
  endfacet
  facet normal 0.156434 -0.987688 0
    outer loop
      vertex -0.724645 2.23023 0
      vertex 0 2.345 3
      vertex -0.724645 2.23023 3
    endloop
  endfacet
  facet normal 0.156434 -0.987688 0
    outer loop
      vertex 0 2.345 3
      vertex -0.724645 2.23023 0
      vertex 0 2.345 0
    endloop
  endfacet
  facet normal -0.156434 0.987688 0
    outer loop
      vertex 0.724645 -2.23023 0
      vertex 0 -2.345 3
      vertex 0.724645 -2.23023 3
    endloop
  endfacet
  facet normal -0.156434 0.987688 0
    outer loop
      vertex 0 -2.345 3
      vertex 0.724645 -2.23023 0
      vertex 0 -2.345 0
    endloop
  endfacet
  facet normal -0.453991 0.891006 0
    outer loop
      vertex 1.37836 -1.89714 0
      vertex 0.724645 -2.23023 3
      vertex 1.37836 -1.89714 3
    endloop
  endfacet
  facet normal -0.453991 0.891006 0
    outer loop
      vertex 0.724645 -2.23023 3
      vertex 1.37836 -1.89714 0
      vertex 0.724645 -2.23023 0
    endloop
  endfacet
  facet normal -0.453991 -0.891006 0
    outer loop
      vertex 0.724645 2.23023 0
      vertex 1.37836 1.89714 3
      vertex 0.724645 2.23023 3
    endloop
  endfacet
  facet normal -0.453991 -0.891006 -0
    outer loop
      vertex 1.37836 1.89714 3
      vertex 0.724645 2.23023 0
      vertex 1.37836 1.89714 0
    endloop
  endfacet
  facet normal -0.891006 -0.453991 0
    outer loop
      vertex 2.23023 0.724645 0
      vertex 1.89714 1.37836 3
      vertex 1.89714 1.37836 0
    endloop
  endfacet
  facet normal -0.891006 -0.453991 0
    outer loop
      vertex 1.89714 1.37836 3
      vertex 2.23023 0.724645 0
      vertex 2.23023 0.724645 3
    endloop
  endfacet
  facet normal -0.156434 -0.987688 0
    outer loop
      vertex 0 2.345 0
      vertex 0.724645 2.23023 3
      vertex 0 2.345 3
    endloop
  endfacet
  facet normal -0.156434 -0.987688 -0
    outer loop
      vertex 0.724645 2.23023 3
      vertex 0 2.345 0
      vertex 0.724645 2.23023 0
    endloop
  endfacet
  facet normal 0.707107 -0.707107 0
    outer loop
      vertex -1.89714 1.37836 3
      vertex -1.37836 1.89714 0
      vertex -1.37836 1.89714 3
    endloop
  endfacet
  facet normal 0.707107 -0.707107 0
    outer loop
      vertex -1.37836 1.89714 0
      vertex -1.89714 1.37836 3
      vertex -1.89714 1.37836 0
    endloop
  endfacet
  facet normal 0.891006 -0.453991 0
    outer loop
      vertex -2.23023 0.724645 3
      vertex -1.89714 1.37836 0
      vertex -1.89714 1.37836 3
    endloop
  endfacet
  facet normal 0.891006 -0.453991 0
    outer loop
      vertex -1.89714 1.37836 0
      vertex -2.23023 0.724645 3
      vertex -2.23023 0.724645 0
    endloop
  endfacet
  facet normal 0.453991 -0.891006 0
    outer loop
      vertex -1.37836 1.89714 0
      vertex -0.724645 2.23023 3
      vertex -1.37836 1.89714 3
    endloop
  endfacet
  facet normal 0.453991 -0.891006 0
    outer loop
      vertex -0.724645 2.23023 3
      vertex -1.37836 1.89714 0
      vertex -0.724645 2.23023 0
    endloop
  endfacet
  facet normal -0.987688 0.156434 0
    outer loop
      vertex 2.23023 -0.724645 0
      vertex 2.345 0 3
      vertex 2.345 0 0
    endloop
  endfacet
  facet normal -0.987688 0.156434 0
    outer loop
      vertex 2.345 0 3
      vertex 2.23023 -0.724645 0
      vertex 2.23023 -0.724645 3
    endloop
  endfacet
  facet normal -0.707107 -0.707107 0
    outer loop
      vertex 1.89714 1.37836 0
      vertex 1.37836 1.89714 3
      vertex 1.37836 1.89714 0
    endloop
  endfacet
  facet normal -0.707107 -0.707107 0
    outer loop
      vertex 1.37836 1.89714 3
      vertex 1.89714 1.37836 0
      vertex 1.89714 1.37836 3
    endloop
  endfacet
  facet normal -0.707107 0.707107 0
    outer loop
      vertex 1.37836 -1.89714 0
      vertex 1.89714 -1.37836 3
      vertex 1.89714 -1.37836 0
    endloop
  endfacet
  facet normal -0.707107 0.707107 0
    outer loop
      vertex 1.89714 -1.37836 3
      vertex 1.37836 -1.89714 0
      vertex 1.37836 -1.89714 3
    endloop
  endfacet
  facet normal 0.891006 0.453991 0
    outer loop
      vertex -1.89714 -1.37836 3
      vertex -2.23023 -0.724645 0
      vertex -2.23023 -0.724645 3
    endloop
  endfacet
  facet normal 0.891006 0.453991 0
    outer loop
      vertex -2.23023 -0.724645 0
      vertex -1.89714 -1.37836 3
      vertex -1.89714 -1.37836 0
    endloop
  endfacet
  facet normal 0.987688 0.156434 0
    outer loop
      vertex -2.23023 -0.724645 3
      vertex -2.345 0 0
      vertex -2.345 0 3
    endloop
  endfacet
  facet normal 0.987688 0.156434 0
    outer loop
      vertex -2.345 0 0
      vertex -2.23023 -0.724645 3
      vertex -2.23023 -0.724645 0
    endloop
  endfacet
  facet normal -0.891006 0.453991 0
    outer loop
      vertex 1.89714 -1.37836 0
      vertex 2.23023 -0.724645 3
      vertex 2.23023 -0.724645 0
    endloop
  endfacet
  facet normal -0.891006 0.453991 0
    outer loop
      vertex 2.23023 -0.724645 3
      vertex 1.89714 -1.37836 0
      vertex 1.89714 -1.37836 3
    endloop
  endfacet
  facet normal 0.156434 0.987688 -0
    outer loop
      vertex 0 -2.345 0
      vertex -0.724645 -2.23023 3
      vertex 0 -2.345 3
    endloop
  endfacet
  facet normal 0.156434 0.987688 0
    outer loop
      vertex -0.724645 -2.23023 3
      vertex 0 -2.345 0
      vertex -0.724645 -2.23023 0
    endloop
  endfacet
  facet normal 0.707107 0.707107 0
    outer loop
      vertex -1.37836 -1.89714 3
      vertex -1.89714 -1.37836 0
      vertex -1.89714 -1.37836 3
    endloop
  endfacet
  facet normal 0.707107 0.707107 0
    outer loop
      vertex -1.89714 -1.37836 0
      vertex -1.37836 -1.89714 3
      vertex -1.37836 -1.89714 0
    endloop
  endfacet
  facet normal 0.453991 0.891006 -0
    outer loop
      vertex -0.724645 -2.23023 0
      vertex -1.37836 -1.89714 3
      vertex -0.724645 -2.23023 3
    endloop
  endfacet
  facet normal 0.453991 0.891006 0
    outer loop
      vertex -1.37836 -1.89714 3
      vertex -0.724645 -2.23023 0
      vertex -1.37836 -1.89714 0
    endloop
  endfacet
  facet normal -0.987689 -0.156432 0
    outer loop
      vertex 21 0 0
      vertex 20.9511 0.309016 3
      vertex 20.9511 0.309016 0
    endloop
  endfacet
  facet normal -0.987689 -0.156432 0
    outer loop
      vertex 20.9511 0.309016 3
      vertex 21 0 0
      vertex 21 0 3
    endloop
  endfacet
  facet normal 0.156434 -0.987688 0
    outer loop
      vertex 19.691 0.951056 0
      vertex 20 1 3
      vertex 19.691 0.951056 3
    endloop
  endfacet
  facet normal 0.156434 -0.987688 0
    outer loop
      vertex 20 1 3
      vertex 19.691 0.951056 0
      vertex 20 1 0
    endloop
  endfacet
  facet normal -0.156434 0.987688 0
    outer loop
      vertex 20.309 -0.951056 0
      vertex 20 -1 3
      vertex 20.309 -0.951056 3
    endloop
  endfacet
  facet normal -0.156434 0.987688 0
    outer loop
      vertex 20 -1 3
      vertex 20.309 -0.951056 0
      vertex 20 -1 0
    endloop
  endfacet
  facet normal -0.891006 0.453992 0
    outer loop
      vertex 20.809 -0.587785 0
      vertex 20.9511 -0.309016 3
      vertex 20.9511 -0.309016 0
    endloop
  endfacet
  facet normal -0.891006 0.453992 0
    outer loop
      vertex 20.9511 -0.309016 3
      vertex 20.809 -0.587785 0
      vertex 20.809 -0.587785 3
    endloop
  endfacet
  facet normal -0.453994 -0.891005 0
    outer loop
      vertex 20.309 0.951056 0
      vertex 20.5878 0.809016 3
      vertex 20.309 0.951056 3
    endloop
  endfacet
  facet normal -0.453994 -0.891005 -0
    outer loop
      vertex 20.5878 0.809016 3
      vertex 20.309 0.951056 0
      vertex 20.5878 0.809016 0
    endloop
  endfacet
  facet normal -0.891006 -0.453992 0
    outer loop
      vertex 20.9511 0.309016 0
      vertex 20.809 0.587785 3
      vertex 20.809 0.587785 0
    endloop
  endfacet
  facet normal -0.891006 -0.453992 0
    outer loop
      vertex 20.809 0.587785 3
      vertex 20.9511 0.309016 0
      vertex 20.9511 0.309016 3
    endloop
  endfacet
  facet normal -0.156434 -0.987688 0
    outer loop
      vertex 20 1 0
      vertex 20.309 0.951056 3
      vertex 20 1 3
    endloop
  endfacet
  facet normal -0.156434 -0.987688 -0
    outer loop
      vertex 20.309 0.951056 3
      vertex 20 1 0
      vertex 20.309 0.951056 0
    endloop
  endfacet
  facet normal 0.891006 -0.453992 0
    outer loop
      vertex 19.0489 0.309016 3
      vertex 19.191 0.587785 0
      vertex 19.191 0.587785 3
    endloop
  endfacet
  facet normal 0.891006 -0.453992 0
    outer loop
      vertex 19.191 0.587785 0
      vertex 19.0489 0.309016 3
      vertex 19.0489 0.309016 0
    endloop
  endfacet
  facet normal 0.987689 -0.156432 0
    outer loop
      vertex 19 0 3
      vertex 19.0489 0.309016 0
      vertex 19.0489 0.309016 3
    endloop
  endfacet
  facet normal 0.987689 -0.156432 0
    outer loop
      vertex 19.0489 0.309016 0
      vertex 19 0 3
      vertex 19 0 0
    endloop
  endfacet
  facet normal 0.453992 -0.891006 0
    outer loop
      vertex 19.4122 0.809016 0
      vertex 19.691 0.951056 3
      vertex 19.4122 0.809016 3
    endloop
  endfacet
  facet normal 0.453992 -0.891006 0
    outer loop
      vertex 19.691 0.951056 3
      vertex 19.4122 0.809016 0
      vertex 19.691 0.951056 0
    endloop
  endfacet
  facet normal -0.707104 -0.70711 0
    outer loop
      vertex 20.5878 0.809016 0
      vertex 20.809 0.587785 3
      vertex 20.5878 0.809016 3
    endloop
  endfacet
  facet normal -0.707104 -0.70711 -0
    outer loop
      vertex 20.809 0.587785 3
      vertex 20.5878 0.809016 0
      vertex 20.809 0.587785 0
    endloop
  endfacet
  facet normal 0.987689 0.156432 0
    outer loop
      vertex 19.0489 -0.309016 3
      vertex 19 0 0
      vertex 19 0 3
    endloop
  endfacet
  facet normal 0.987689 0.156432 0
    outer loop
      vertex 19 0 0
      vertex 19.0489 -0.309016 3
      vertex 19.0489 -0.309016 0
    endloop
  endfacet
  facet normal 0.707107 -0.707107 0
    outer loop
      vertex 19.191 0.587785 3
      vertex 19.4122 0.809016 0
      vertex 19.4122 0.809016 3
    endloop
  endfacet
  facet normal 0.707107 -0.707107 0
    outer loop
      vertex 19.4122 0.809016 0
      vertex 19.191 0.587785 3
      vertex 19.191 0.587785 0
    endloop
  endfacet
  facet normal -0.453994 0.891005 0
    outer loop
      vertex 20.5878 -0.809016 0
      vertex 20.309 -0.951056 3
      vertex 20.5878 -0.809016 3
    endloop
  endfacet
  facet normal -0.453994 0.891005 0
    outer loop
      vertex 20.309 -0.951056 3
      vertex 20.5878 -0.809016 0
      vertex 20.309 -0.951056 0
    endloop
  endfacet
  facet normal -0.987689 0.156432 0
    outer loop
      vertex 20.9511 -0.309016 0
      vertex 21 0 3
      vertex 21 0 0
    endloop
  endfacet
  facet normal -0.987689 0.156432 0
    outer loop
      vertex 21 0 3
      vertex 20.9511 -0.309016 0
      vertex 20.9511 -0.309016 3
    endloop
  endfacet
  facet normal 0.891006 0.453992 0
    outer loop
      vertex 19.191 -0.587785 3
      vertex 19.0489 -0.309016 0
      vertex 19.0489 -0.309016 3
    endloop
  endfacet
  facet normal 0.891006 0.453992 0
    outer loop
      vertex 19.0489 -0.309016 0
      vertex 19.191 -0.587785 3
      vertex 19.191 -0.587785 0
    endloop
  endfacet
  facet normal -0.707104 0.70711 0
    outer loop
      vertex 20.809 -0.587785 0
      vertex 20.5878 -0.809016 3
      vertex 20.809 -0.587785 3
    endloop
  endfacet
  facet normal -0.707104 0.70711 0
    outer loop
      vertex 20.5878 -0.809016 3
      vertex 20.809 -0.587785 0
      vertex 20.5878 -0.809016 0
    endloop
  endfacet
  facet normal 0.156434 0.987688 -0
    outer loop
      vertex 20 -1 0
      vertex 19.691 -0.951056 3
      vertex 20 -1 3
    endloop
  endfacet
  facet normal 0.156434 0.987688 0
    outer loop
      vertex 19.691 -0.951056 3
      vertex 20 -1 0
      vertex 19.691 -0.951056 0
    endloop
  endfacet
  facet normal 0.707107 0.707107 0
    outer loop
      vertex 19.4122 -0.809016 3
      vertex 19.191 -0.587785 0
      vertex 19.191 -0.587785 3
    endloop
  endfacet
  facet normal 0.707107 0.707107 0
    outer loop
      vertex 19.191 -0.587785 0
      vertex 19.4122 -0.809016 3
      vertex 19.4122 -0.809016 0
    endloop
  endfacet
  facet normal 0.453992 0.891006 -0
    outer loop
      vertex 19.691 -0.951056 0
      vertex 19.4122 -0.809016 3
      vertex 19.691 -0.951056 3
    endloop
  endfacet
  facet normal 0.453992 0.891006 0
    outer loop
      vertex 19.4122 -0.809016 3
      vertex 19.691 -0.951056 0
      vertex 19.4122 -0.809016 0
    endloop
  endfacet
endsolid OpenSCAD_Model
